/* XPM */
static char *f1d0913575c94712cce7bf673e8ecdd4fguqR0fKyeLPwaM7[] = {
/* columns rows colors chars-per-pixel */
"64 64 154 2 ",
"   c None",
".  c #161C2E",
"X  c #181E2F",
"o  c #181F30",
"O  c #1B2233",
"+  c #222737",
"@  c #232B3B",
"#  c #2C2F3E",
"$  c #27313F",
"%  c #252E40",
"&  c #263041",
"*  c #2B3442",
"=  c #2D3946",
"-  c #2C3748",
";  c #2E3A4A",
":  c #343946",
">  c #323D4C",
",  c #3C3E4A",
"<  c #35424D",
"1  c #3F404C",
"2  c #364354",
"3  c #3A4651",
"4  c #3E4B56",
"5  c #3D4C5B",
"6  c #3F5059",
"7  c #44454F",
"8  c #414655",
"9  c #424B57",
"0  c #4B4B55",
"q  c #444D59",
"w  c #484D5B",
"e  c #42525C",
"r  c #4D515B",
"t  c #57565E",
"y  c #465662",
"u  c #495965",
"i  c #4B5C6A",
"p  c #555A67",
"a  c #5C5B63",
"s  c #4F646A",
"d  c #5E626F",
"f  c #4E6070",
"g  c #536674",
"h  c #5B6772",
"j  c #556876",
"k  c #576B7A",
"l  c #586C7B",
"z  c #587074",
"x  c #5E737D",
"c  c #6A666B",
"v  c #6B686C",
"b  c #626672",
"n  c #676B76",
"m  c #726E71",
"M  c #687678",
"N  c #63797B",
"B  c #797477",
"V  c #837D7E",
"C  c #627482",
"Z  c #647F81",
"A  c #6A7984",
"S  c #6D7E8C",
"D  c #727B86",
"F  c #7A7D87",
"G  c #7B7F89",
"H  c #6B8888",
"J  c #738089",
"K  c #7C808A",
"L  c #7F8E8C",
"P  c #778793",
"I  c #7C8C97",
"U  c #7F8E99",
"Y  c #799996",
"T  c #7D9F9B",
"R  c #838183",
"E  c #888282",
"W  c #8C8887",
"Q  c #978F8D",
"!  c #92979A",
"~  c #979B9D",
"^  c #A09793",
"/  c #8C99A4",
"(  c #999BA3",
")  c #8EA5A0",
"_  c #88ADA7",
"`  c #89AFA8",
"'  c #8CB1AA",
"]  c #90B7AF",
"[  c #93B8AF",
"{  c #95B9B0",
"}  c #9EBCB3",
"|  c #A3A5AC",
" . c #B5AAA3",
".. c #BBAFA7",
"X. c #A4ABB2",
"o. c #ADAFB5",
"O. c #AEB0B7",
"+. c #A2BEB4",
"@. c #A6B1B9",
"#. c #AFB3B9",
"$. c #BBB6B0",
"%. c #BFB9B4",
"&. c #B6B8BD",
"*. c #C3B6AD",
"=. c #CBBDB3",
"-. c #ABC1B7",
";. c #AFC2B8",
":. c #B9C6BB",
">. c #BEC8BC",
",. c #CFC1B6",
"<. c #CDC3B9",
"1. c #C3C9BD",
"2. c #C9CCBF",
"3. c #D1C6BC",
"4. c #DBCCBF",
"5. c #B3BCC3",
"6. c #B9BBC0",
"7. c #BAC2C8",
"8. c #CDCDC1",
"9. c #C3C5CA",
"0. c #CAC8CA",
"q. c #D3D0C2",
"w. c #DAD2C4",
"e. c #C5CCD1",
"r. c #CBCED2",
"t. c #CAD1D5",
"y. c #CED3D8",
"u. c #D7DBDF",
"i. c #E3D5C6",
"p. c #E6D7C8",
"a. c #E8D7C8",
"s. c #E9D8C9",
"d. c #ECDED2",
"f. c #EEE1D6",
"g. c #EDE3DA",
"h. c #F1E6DD",
"j. c #DCDFE1",
"k. c #E1E1E1",
"l. c #E9E8E6",
"z. c #E7E7E9",
"x. c #EAECEE",
"c. c #F4EBE4",
"v. c #F6EFE9",
"b. c #F7F1EB",
"n. c #F8F2EE",
"m. c #F3F4F5",
"M. c #FAF6F3",
"N. c #FBF9F7",
"B. c #FDFCFB",
"V. c #FBFCFC",
"C. c #FDFDFC",
"Z. c #FEFDFD",
"A. c white",
"S. c #FAFAFA",
/* pixels */
"                                                                                                                                ",
"                                                                                                                                ",
"                                                                                                                                ",
"                                                                                                                                ",
"                                                                                                                                ",
"                                                                                                                                ",
"                                                                                                                                ",
"                                                                                                                                ",
"                                                                                                                                ",
"                                                                                                                                ",
"                                              l l l l l l l                                                                     ",
"                                k l l l k   l l l S P P S l l                                                                   ",
"                          l l l C C C x l l l l C y.A.A.y.C C     l l l l l                                                     ",
"                        l l l l u.m.m.5.l l l l u.V.A.A.V.m.x.C l k l l l l l l                                                 ",
"                      k l l C u.S.A.A.m.5.l C u.S.A.A.A.A.A.m.C l l ! <.<.%.l l k                                               ",
"                    k l I t.y.V.A.A.A.A.l.$.%.S.A.A.A.A.A.A.m.C l @.k.n.c.i.$.C l k l                                           ",
"                  . * > D A.A.A.A.A.A.A.N.c.s.B.A.A.A.A.A.A.S.7.5.x.A.M.h.w.~ x l l l l                                         ",
"                . . . . 3 o.A.A.A.A.A.A.A.S.c.A.A.A.A.A.A.A.A.A.A.A.A.M.c.g.X.X.X.X.I l k                                       ",
"              . . 7 t t a K A.A.A.A.A.A.A.A.A.A.A.A.A.A.A.A.A.A.A.A.A.A.A.A.A.A.A.A.e./ U l l                                   ",
"            . . :  .s.s.c.A.A.A.A.A.A.A.A.A.A.A.A.A.A.A.A.A.A.A.A.A.A.A.A.A.A.A.A.A.A.A.j.J J l                                 ",
"          . . + *.s.s.c.A.A.A.A.A.A.A.A.A.A.A.A.A.A.A.A.A.A.A.A.A.A.A.A.A.A.A.A.A.A.A.A.M.s.s.A l                               ",
"          . + ,.p.s.s.c.A.A.A.A.A.A.A.A.A.A.A.A.A.A.A.A.A.A.A.A.A.A.A.A.A.A.A.A.A.A.A.A.M.s.s.A l                               ",
"          . + 4.s.s.s.c.A.A.A.A.A.A.A.A.A.A.A.A.A.A.A.A.A.A.A.A.A.A.A.A.A.A.A.A.A.A.A.A.A.n.s.3.r O                             ",
"        . . + 4.s.s.s.d.c.A.A.A.A.A.A.A.A.A.A.A.A.A.A.A.A.A.A.A.A.A.A.A.A.A.A.A.A.A.A.A.N.f.s.c @ .                             ",
"      . . @ N i.s.s.s.s.g.A.A.A.A.A.A.A.A.A.A.A.A.A.A.A.A.A.A.A.A.A.A.A.A.A.A.A.A.A.A.A.S.c.c.| ( w . .                         ",
"    . . $ z { i.s.s.s.s.d.b.A.A.A.A.A.A.A.A.A.A.A.A.A.A.A.A.A.A.A.A.A.A.A.A.A.A.A.A.A.A.A.A.A.A.A.o.w . .                       ",
"    . . 4 ] { i.s.s.s.s.s.s.n.n.n.n.N.A.A.A.A.A.A.A.A.A.A.A.A.A.A.A.A.A.A.A.A.A.A.A.A.A.A.A.A.A.A.A.O.8 .                       ",
"    . . 4 ] { i.s.s.s.s.s.s.s.s.s.s.b.A.A.A.A.A.A.A.A.A.A.A.A.A.A.A.A.A.A.A.A.A.A.A.S.M.N.A.A.A.A.A.A.X.. .                     ",
"    . . 3 ` { w.i.i.p.s.s.s.s.s.s.n.A.A.A.A.A.A.A.A.A.A.A.A.A.A.A.A.A.A.A.A.A.A.A.A.c.s.d.m.A.A.A.A.A.o.+ .                     ",
"    . . o < ] { { { 1.s.s.s.s.s.s.n.A.A.A.A.A.A.A.A.A.A.A.A.A.A.A.A.A.A.A.A.A.A.A.A.A.v. .3 A.A.A.A.A.S.6.. .                   ",
"    . . . O = = T 1.i.s.s.s.s.s.s.n.A.A.A.A.A.A.A.A.A.A.A.A.A.A.A.A.A.n.h.A.A.A.A.A.A.r.h O 8 z.A.A.A.A.9.. .                   ",
"      . . . O Z _ 8.s.s.s.s.s.s.s.f.n.A.A.A.A.A.A.A.v.g.g.c.A.A.A.A.A.b.s.h.A.A.A.A.A.#.> 5 . p d 9.A.A.9.. .                   ",
"        . # W ' ] 8.s.s.s.s.s.s.s.s.f.n.A.A.A.A.A.v.d.s.s.s.c.A.A.A.A.0.m R A.A.A.A.A.X.& j 5 O . p G G b .                     ",
"        . , i.{ ] 8.s.s.s.s.s.s.s.s.s.f.c.c.c.c.c.d.s.s.s.s.s.c.c.c.M.X.. @ ( m.A.A.r.n & l l 2 O . . . . .                     ",
"        . , p.;.{ :.w.s.s.s.s.s.s.s.s.s.s.s.s.s.s.s.s.s.s.s.s.s.s.s.8.F . . . | &.&.n . & l l l 2 @ @ @ O . .                   ",
"        . : *.p.+.] :.w.w.w.s.s.w.i.s.s.s.s.s.s.s.s.s.s.s.s.s.s.s.=.v . . . . . . . . O ; l l l l e 3 4 < O .                   ",
"        . . + 4.+.] ] ] ] } i.i.} 8.s.s.s.s.s.s.s.s.s.s.s.s.s.s.s.t . . . O O O O O O > l l l l l ; * 4 4 3 . .                 ",
"          . + 4.p.-.] ] ] ] { { ] 8.s.s.s.s.s.s.s.s.s.s.s.s.s.s.s.t . . % g g g g g g j l l l l l ; . @ 4 3 . .                 ",
"          . X , ) { ] ] ] ] ] ] ] } 2.s.s.s.s.s.s.s.s.s.s.s.s.s.a + > i f l l l l l l l l l l * i ; . @ 4 3 . .                 ",
"            . . < 4 H ] ] ] ] ] ] ] } 1.s.s.s.s.s.s.s.8.-.-.;.p., . 2 g y y y y g l l y 2 l l y g i - O @ @ . .                 ",
"              . . . < L 1.:.] ] ] ] ] +.1.s.s.s.s.s.8.+.] ] { i., . ; y 4 3 $ 3 g l l i y l l l l l 2 . . . . .                 ",
"              . . . . m s.w.] ] ] ] ] ] } 1.1.1.1.1.+.] ] ] [ >.: . * 4 4 3 . 3 g l l l l l l l l l 5 @ . . .                   ",
"                . . . t ..w.-.] ] ] ] ] ] ] ] ] ] ] ] ] ] ] ] ] = . @ < 4 3 . 3 i j l l l l l l l l i = . .                     ",
"                . . . . 0 =.p.+.+.+.{ ] ] ] ] ] ] ] ] ] ] ] ] ] 6 O . @ < > . > 4 i g j l l l l l j u = . .                     ",
"                  . . . . , 4.a.s.s.:.{ { { ] ] ] ' ' ] ] ] ] ] ] e O . . . . . > 4 4 y k l l k k y 4 = . .                     ",
"                    . . . X * 4.s.s.p.i.i.q.] ] ] e x ] ] ] ] ] ] ' s . . . . . . : 4 4 y l l e 9 4 * . .                       ",
"                        . . X , , , , M +.} ] ] 6 O R w.w.w.q.{ ] 1.<.V . @ Y @ . O = 4 9 e e 4 4 * O . .                       ",
"                  . . . . . . . . . . $ 4 4 4 4 O . , Q s.s.p.8.8.i.^ 1 . O 4 O . . O = 4 4 4 4 * O . .                         ",
"                  . . . . . . . . . . . . . . . . . . , m m B i.E m 7 . . . . . . . . O $ $ $ $ O . .                           ",
"                  . . . . . .         . . . . . . . . . . . O V # . . . . . . . . . . . . . . . . .                             ",
"                    . . . .                       . . . . . . . . . . .       . . . . . . . . . .                               ",
"                                                            . . . . .             . . . . .                                     ",
"                                                            . . . . .               . . . .                                     ",
"                                                              . . . . .                                                         ",
"                                                                . . . .                                                         ",
"                                                                  . .                                                           ",
"                                                                                                                                ",
"                                                                                                                                ",
"                                                                                                                                ",
"                                                                                                                                ",
"                                                                                                                                ",
"                                                                                                                                ",
"                                                                                                                                ",
"                                                                                                                                "
};
