/* XPM */
static char *a0ccff6a24674ec4b44a6bab3d8bcd8biKkgIK1opZVBpGJy[] = {
/* columns rows colors chars-per-pixel */
"64 64 206 2 ",
"   c None",
".  c #705F7F",
"X  c #796775",
"o  c #907B60",
"O  c #8A7878",
"+  c #917F78",
"@  c #988159",
"#  c #AF9543",
"$  c #AB924B",
"%  c #B09643",
"&  c #B39A46",
"*  c #B59D49",
"=  c #B29748",
"-  c #A38C54",
";  c #A28B5B",
":  c #B89C52",
">  c #B79B50",
",  c #A78F54",
"<  c #B7A04C",
"1  c #BAA34D",
"2  c #BCA652",
"3  c #BFA954",
"4  c #BCA85B",
"5  c #998569",
"6  c #928074",
"7  c #A28D6C",
"8  c #A28C66",
"9  c #B29F6C",
"0  c #B8A97E",
"q  c #C2AC54",
"w  c #C2AD5B",
"e  c #C0A55A",
"r  c #C5B15B",
"t  c #CDBB5D",
"y  c #C7B457",
"u  c #C19E7B",
"i  c #C4A564",
"p  c #CABA65",
"a  c #CDBE6A",
"s  c #C7B567",
"d  c #CDA975",
"f  c #CFC16D",
"g  c #D3C363",
"h  c #D1C46C",
"j  c #DACD6A",
"k  c #D2C27B",
"l  c #DAD17C",
"z  c #DDD06C",
"x  c #E0D46F",
"c  c #E1D671",
"v  c #E6DC74",
"b  c #E3DA7C",
"n  c #E9DF77",
"m  c #EAE177",
"M  c #EAE17A",
"N  c #5C4E92",
"B  c #5E5193",
"V  c #64558A",
"C  c #625495",
"Z  c #6C5E97",
"A  c #635698",
"S  c #665B9C",
"D  c #685D9E",
"F  c #675A95",
"G  c #6C619E",
"H  c #6F6293",
"J  c #7C6F9D",
"K  c #746798",
"L  c #7D729C",
"P  c #7A6C8D",
"I  c #6A5FA0",
"U  c #6D62A1",
"Y  c #7166A4",
"T  c #7469A6",
"R  c #786DA3",
"E  c #756BA8",
"W  c #796EAC",
"Q  c #7B71AC",
"!  c #7F75A1",
"~  c #7E74B1",
"^  c #877888",
"/  c #82779C",
"(  c #8478A9",
")  c #867AA7",
"_  c #917FA4",
"`  c #847AB6",
"'  c #867CB9",
"]  c #897EBB",
"[  c #938592",
"{  c #A79785",
"}  c #B7AD9C",
"|  c #BFB696",
" . c #8B81A0",
".. c #8C82AA",
"X. c #9385AC",
"o. c #948BAD",
"O. c #958BA5",
"+. c #9C94AF",
"@. c #9A91A5",
"#. c #8A80BC",
"$. c #9186B4",
"%. c #998DB1",
"&. c #968DBC",
"*. c #9289B7",
"=. c #9C94BC",
"-. c #9D94B1",
";. c #A794AC",
":. c #A59BAA",
">. c #A596AA",
",. c #A18DB8",
"<. c #A49CBD",
"1. c #A599B3",
"2. c #A7A0A9",
"3. c #AAA3AC",
"4. c #B1ABAB",
"5. c #B4A9A9",
"6. c #B9B2AD",
"7. c #AAA3BD",
"8. c #AAA4B4",
"9. c #B2ADB4",
"0. c #B2ABBD",
"q. c #BDA9B8",
"w. c #BAA7B4",
"e. c #B6B1B5",
"r. c #BCB6B4",
"t. c #BCB7BE",
"y. c #D6AE88",
"u. c #CCBD88",
"i. c #DCAE97",
"p. c #C8BA92",
"a. c #DCB192",
"s. c #D8B58E",
"d. c #E1B39D",
"f. c #C3AFBA",
"g. c #D0A7B0",
"h. c #C3BFB7",
"j. c #CDB7BA",
"k. c #C1BCBD",
"l. c #C3B7B8",
"z. c #D4BDBD",
"x. c #D2B5B3",
"c. c #C1B8A9",
"v. c #E8B5AC",
"b. c #E9BDAE",
"n. c #E5B4A6",
"m. c #D5CA88",
"M. c #DBD382",
"N. c #DDD686",
"B. c #D8CB96",
"V. c #D5CC94",
"C. c #E4DE87",
"Z. c #E1CF9C",
"A. c #EBE483",
"S. c #EBE68C",
"D. c #E8E48B",
"F. c #ECEA93",
"G. c #EBE795",
"H. c #DAD2AD",
"J. c #C5C0BE",
"K. c #CBC7BD",
"L. c #CECBBB",
"P. c #C9C5B5",
"I. c #D3CEBC",
"U. c #D7C5BD",
"Y. c #D6D3B7",
"T. c #D3D0BA",
"R. c #D9D5BD",
"E. c #DCD9BD",
"W. c #D8D5B7",
"Q. c #EAC0AF",
"!. c #EAC4B1",
"~. c #ECCDB3",
"^. c #E1CEBF",
"/. c #EDD3B6",
"(. c #EED9B7",
"). c #E1DDBC",
"_. c #EAD9BB",
"`. c #E4DEA2",
"'. c #EBE7A4",
"]. c #E5E3BF",
"[. c #ECEABE",
"{. c #ECE4B9",
"}. c #F0E4BB",
"|. c #F1ECBE",
" X c #F2F0BE",
".X c #A39AC6",
"XX c #C4BBCF",
"oX c #C1BBC4",
"OX c #CCC6C6",
"+X c #D2CAD9",
"@X c #DDD5DE",
"#X c #DFD8D7",
"$X c #D0CBC2",
"%X c #E2C9C0",
"&X c #ECD4C2",
"*X c #ECDAC1",
"=X c #F3D8C5",
"-X c #F1D6C4",
";X c #E5DFD2",
":X c #E1DAD8",
">X c #E9E5CD",
",X c #EAE8C6",
"<X c #F3E3C2",
"1X c #F2EDC0",
"2X c #F3F2C0",
"3X c #E6E2D0",
/* pixels */
"                                                                                                                                ",
"                                                                                                                                ",
"                                                                                                                                ",
"                                                                                                                                ",
"                                                                                                                                ",
"                                                                                                                                ",
"                                                                                                                                ",
"                                                                                                                                ",
"                                                                                                                                ",
"                                                                                                                                ",
"                    #.#.#.#.#.#.#.#.#.#.#.                              #.#.#.#.#.#.#.#.#.#.#.#.    3 < % % %                   ",
"                  #.#.#.#.#.#.#.#.#.#.#.#.#.                          #.#.#.#.#.#.#.#.#.#.#.#.O.4 3 3 2 < & % #                 ",
"                #.#.#.#.&.&.&.&.&.&.&.#.#.#.#.                      #.#.#.#.*.&.&.&.&.&.&.&.$.{ 4 3 3 w w 1 % % %               ",
"              #.#.#.#.=.t.K.K.K.K.K.K.<.#.#.#.#.#.                #.#.#.#.#.0.K.K.K.K.K.K.c.{ 9 3 3 3 a l r % % #               ",
"            #.#.#.#.=.t.].2X2X2X2X2X2Xk.=.*.#.#.#.                #.#.#.&.<.I.2X2X2X2X2X2X`.w 2 3 w s l S.h < & % %             ",
"            #.#.#.=.k.E.[.2X2X2X2X2X2X).K.<.#.#.#.                #.#.#.0.T.].2X2X2X2X2X2XZ.4 * 3 a N.C.A.c g 3 % % %           ",
"            #.#.#.<.R.|.}.}.}.|. X2X2X2X[.0.#.#.#.              #.#.#.#.J.2X2X2X2X|.}.}.}.B.: & 1 p N.b n c g q % % %           ",
"            #.#.#.<.R.}.~.!.!.(.|.2X2X2X[.0.#.#.#.#.#.#.#.#.#.#.#.#.#.#.J.2X2X2X2X|.~.!.!.s.> % & 1 4 g v g 1 * % % %           ",
"            #.#.#.<.I./.b.v.v.~.(.|.2X2X[.0.#.#.#.#.#.#.#.#.#.#.#.#.#.#.J.2X2X X}.(.Q.v.v.i.i : % % % y j q % % # # %           ",
"            #.#.#.,.x.b.v.v.v.b.b.(.2X2X[.0.#.#.#.#.#.#.#.#.#.#.#.#.#.#.J.2X2X|.~.b.v.v.v.n.i.d = % % * 1 * % % %               ",
"            #.#.] ,.g.v.v.v.v.v.v./.2X2X1XoX.X.X.X.X.X.X.X.X.X.X.X.X.X.X$X2X2X|.~.n.a.a.a.y.y.u 8 - % % % % % # %               ",
"            #.#.] ,.g.v.v.v.v.v.v./.2X2X1X#X+X+X+X+X+X+X+X+X+X+X+X+X+X+X3X2X2X|.~.d.d w w e : 7 / 6 % % % % #                   ",
"            #.#.#.,.g.v.v.v.v.v.v./.2X2X2X;X@X@X@X@X@X@X@X@X@X@X@X@X@X@X>X2X2X[.Z.y.i 3 3 1 & ; + + 5 ; % % %                   ",
"            #.#.#.,.g.v.v.v.v.v.v./.2X2X2X;X@X@X@X@X@X@X@X@X@X@X@X@X@X@X>X2X2X{.k w 3 3 3 1 & # $ 6 R J                         ",
"            #.] ` %.x.~.~.~.~.~.~.}.2X2X2X;X@X@X@X@X@X@X@X@X@X@X@X@X@X@X>X X`.m.p 3 3 y f p * % % ; +                           ",
"            #.' Q o.T.2X2X2X2X2X2X2X2X2X2X;X@X@X@X@X@X@X@X@X@X@X@X@X@X@X>X[.k 3 3 3 3 p D.M.< % % % %                           ",
"            ~ ~ W o.T.2X2X2X2X2X2X2X2X2X2X;X@X@X@X@X@X@X@X@X@X@X@X@X@X@XH.m.s 3 3 w h l D.b g q & % % %                         ",
"            E E E o.T.2X2X2X2X2X2X2X2X2X2X;X@X@X@X@X@X@X@X@X@X@X@X@X@X@Xp.3 3 3 w p C.F.M m m g * & % % %                       ",
"            E E E o.T.2X2X2X2X2X2X2X2X2X2X;X@X@X@X@X@X@X@X@X@X@X@X@X@X@Xp.3 3 w h M.G.F.M m m x g q % % %                       ",
"            E E E o.T.2X2X2X2X2X2X2X2X2X2X3X#X@X@X@X@X@X@X@X@X@X@X@X@X#Xu.2 2 w l G.F.S.M m m v c t % % %                       ",
"            E E E o.T.2X2X2X2X2X2X2X2X2X2X,X>X:X@X@X@X@X@X@X@X@X@X@X;X>Xu.* * < w a b A.m m m z y 1 % % %                       ",
"            E T Y ..r.Y.Y.Y.Y.Y.Y.W.E.E.E.E.R.OXXXXXXXXXXXXXXXXXXXXXOXY.0 - $ % % < g c v v x t & % % $ , 7                     ",
"      #.#.' Q Y D G /  . . . . . .O.+.+.+.+.+...( ( ( ( ( ( ( ( ( ( )  .P X @ % % & 1 t c z y 1 % % % 7 [ ..#.                #.",
"      #.#.' Q Y A N N N N N N B C G E E T Y U C N N N N N N N N N N N N N V O ; $ % % 1 g t * % % $ ; [ #.#.#.                #.",
"      #.#.' Q Y A N N N N N N A U Y E E T D C B N N N N N N N N N N N N N B H ^ ; % % & 1 1 & % % 5 ^ ) #.#.#.                #.",
"      #.#.' Q Y A F L L C B A D T E E Y U C N N C L  . . . . . .K B N N C A U J + ; $ % % % % $ @ O E ~ #.#.#.                #.",
"            E Y A J 6.4.K A U Y T E E D C B N N K 4.Y.Y.Y.Y.Y.Y.>.C N N S Y T R L ^ - % % % % @ . H E W                         ",
"            E Y D ) L.P.! D T E E Y G A N N C / :.Y.2X2X2X2X2X2XP.@.L A U E E T U H O o o 8 s { Z U E                           ",
"            E T T o.I.P...T T E E D B N N N Z 6.].[.2X2X2X2X2X2X[.).3.Y T E E Y A C V V V [ H.6.R T E                           ",
"          ` W E E o.T.E.q.o.Q Y D A N N C / 2.W.2X2X2X2X2X2X2X2X2X2XL.8...T U D C N N Z _ w.].h.Q E E Q                         ",
"      #.#.' Q E E o.T.<X*Xq.( D B N N N C 4.[.|.2X2X2X2X2X2X2X2X2X2X[.[.8.T A N N N N J j.*X1Xh.Q E E ~ #.#.#.                  ",
"      #.#.' Q E E o.U.<X=XU.q.1.;.:.2.2.3.Y.[.K.J.].].h.9.9.P.[.E.k.R.2XL.9.3.:.>.;.;.w.%X=X<Xl.Q E E ~ #.#.#.                  ",
"      #.#.' Q E E X.z.=X=X=X=X=X=X<X2X2X2X2X].7.=.I.T.o.E E 1.].J.*.t.2X2X2X2X1X<X=X=X=X=X=X=Xf.Q E E ~ #.#.#.                  ",
"          ` W E E X.z.=X=X=X=X=X=X<X2X2X2X2X[.I.k.9.9.e.r.r.e.8.e.k.E.2X2X2X2X1X<X=X=X=X=X=X=Xf.Q Y U E                         ",
"            E E E X.j.&X-X=X=X=X=X<X2X2X2X2X2X2XE.1.+.T.2X2XP...9.[.2X2X2X2X X1X<X=X=X=X=X-X&Xq.Q U D                           ",
"            E E E ( %.q.%X=X=X=X<X1X2X2X2X2X2X2X[.I.L.].2X2X).P.W.|.2X2X2X2X2X2X1X<X=X=X=Xz.;.) U I D                           ",
"            T T E T T X.j.%X%X^.).].].].].].].].].].].].].].].].].,X].].].].].].].).^.%X%Xw.R D D D D                           ",
"                T T U R _ X.X.X.o.-.7.7.7.7.7.7.7.7.7.7.7.7.7.7.7.7.7.7.7.7.7.7.+.o.X.X.X.( G D D D                             ",
"                T Y I D D D D D D W #.#.#.#.#.#.#.#.#.] #.#.#.#.#.#.#.#.#.#.#.' Y D D D D D D D D                               ",
"                    D D D D D D D W #.#.#.#.#.#.#.#.#.#.#.#.#.#.#.#.#.#.#.#.#.' Y D D D D D D D                                 ",
"                    D D D D D D D Q #.#.#.#.#.#.#.#.*.+.:.:.%.#.#.#.#.#.#.#.#.' E D D D D D D                                   ",
"                                  ` #.#.#.#.#.#.#.#.+.p.m.m.} *.#.#.#.#.#.#.#.]                                                 ",
"                                    #.#.#.#.#.#.#.+.} M.M S.V.5.+.#.#.#.#.#.#.#.                                                ",
"                                      #.#.#.#.#.%.| M.b S.'.'.N.} #.#.#.#.#.                                                    ",
"                                        #.#.#.#.:.m.m m A.G.G.M m.*.#.#.#.#.                                                    ",
"                                                  b m m m M M m b                                                               ",
"                                                    m m m m m m                                                                 ",
"                                                      m m m m                                                                   ",
"                                                                                                                                ",
"                                                                                                                                ",
"                                                                                                                                ",
"                                                                                                                                ",
"                                                                                                                                ",
"                                                                                                                                "
};
