/* XPM */
static char * Floor_xpm[] = {
"65 64 229 2",
"  	c #80AC5E",
". 	c #91B455",
"+ 	c #9BB94E",
"@ 	c #8DB257",
"# 	c #92B454",
"$ 	c #B0B955",
"% 	c #B9B958",
"& 	c #9AB94E",
"* 	c #99B84F",
"= 	c #7FAC5E",
"- 	c #95B652",
"; 	c #98B850",
"> 	c #8FB356",
", 	c #A5B952",
"' 	c #9AB84F",
") 	c #98B653",
"! 	c #A5B951",
"~ 	c #9FB94F",
"{ 	c #B7B958",
"] 	c #B8B958",
"^ 	c #97B850",
"/ 	c #81AD5D",
"( 	c #92B554",
"_ 	c #94B553",
": 	c #8BB159",
"< 	c #8CB158",
"[ 	c #AAB953",
"} 	c #9EB94F",
"| 	c #89B05A",
"1 	c #82AD5D",
"2 	c #84AE5C",
"3 	c #8BB158",
"4 	c #88B05A",
"5 	c #98B750",
"6 	c #86AF5B",
"7 	c #9DB94F",
"8 	c #9CB94E",
"9 	c #A3B951",
"0 	c #B5B957",
"a 	c #B3B858",
"b 	c #81AC5E",
"c 	c #91AF5D",
"d 	c #B7B957",
"e 	c #B5B858",
"f 	c #A4B45A",
"g 	c #87AE5C",
"h 	c #85AE5B",
"i 	c #83AD5D",
"j 	c #B6B957",
"k 	c #9CB94D",
"l 	c #99B850",
"m 	c #A1B950",
"n 	c #A8B953",
"o 	c #B4B957",
"p 	c #AEB954",
"q 	c #ADB65A",
"r 	c #97B554",
"s 	c #97B15C",
"t 	c #7EAC5E",
"u 	c #BAB958",
"v 	c #A8B952",
"w 	c #B4B956",
"x 	c #B3B956",
"y 	c #97B751",
"z 	c #94B653",
"A 	c #9CB655",
"B 	c #ABB659",
"C 	c #9BB94D",
"D 	c #A5B45A",
"E 	c #B1B956",
"F 	c #AEB955",
"G 	c #B2B956",
"H 	c #87AF5A",
"I 	c #96B751",
"J 	c #8EB257",
"K 	c #97B652",
"L 	c #87AF5B",
"M 	c #95B05C",
"N 	c #A9B953",
"O 	c #A0B950",
"P 	c #81AC5D",
"Q 	c #83AC5E",
"R 	c #93B554",
"S 	c #9AB94F",
"T 	c #A7B952",
"U 	c #9DB850",
"V 	c #82AC5E",
"W 	c #A6B951",
"X 	c #A2B950",
"Y 	c #ABB758",
"Z 	c #92B455",
"` 	c #A1B35B",
" .	c #9AB15C",
"..	c #A0B35A",
"+.	c #8EB356",
"@.	c #8AB159",
"#.	c #7EAB5F",
"$.	c #9DB94E",
"%.	c #BAB959",
"&.	c #A0B35B",
"*.	c #88AD5E",
"=.	c #8DAE5D",
"-.	c #AAB55A",
";.	c #89B059",
">.	c #B1B955",
",.	c #A6B952",
"'.	c #9EB94E",
").	c #90AF5D",
"!.	c #8EAF5D",
"~.	c #A9B952",
"{.	c #AFB955",
"].	c #ACB954",
"^.	c #ADB954",
"/.	c #8AB059",
"(.	c #B1B759",
"_.	c #97B653",
":.	c #93B553",
"<.	c #96B652",
"[.	c #A4B951",
"}.	c #90B355",
"|.	c #83AE5C",
"1.	c #85AE5C",
"2.	c #83AD5C",
"3.	c #8CB258",
"4.	c #98B751",
"5.	c #A0B655",
"6.	c #9BB555",
"7.	c #91AF5C",
"8.	c #7FAB5F",
"9.	c #92B259",
"0.	c #A4B853",
"a.	c #82AD5C",
"b.	c #ADB758",
"c.	c #9EB851",
"d.	c #8EB357",
"e.	c #9BB25A",
"f.	c #A3B852",
"g.	c #95B653",
"h.	c #88AF5A",
"i.	c #90B455",
"j.	c #B4B858",
"k.	c #97B25A",
"l.	c #A6B45A",
"m.	c #B1B857",
"n.	c #9CB94F",
"o.	c #B5B956",
"p.	c #84AD5E",
"q.	c #93B05C",
"r.	c #9AB850",
"s.	c #92B258",
"t.	c #A1B557",
"u.	c #93B357",
"v.	c #B3B859",
"w.	c #AAB757",
"x.	c #97B555",
"y.	c #98B25A",
"z.	c #A9B954",
"A.	c #B0B858",
"B.	c #90B356",
"C.	c #94B15A",
"D.	c #86AE5C",
"E.	c #86AD5D",
"F.	c #A7B55A",
"G.	c #9AB458",
"H.	c #A3B558",
"I.	c #9AB25C",
"J.	c #8CB257",
"K.	c #8AAE5D",
"L.	c #A3B45B",
"M.	c #7EAB5E",
"N.	c #AEB659",
"O.	c #ACB65A",
"P.	c #8DAF5D",
"Q.	c #83AD5E",
"R.	c #9BB850",
"S.	c #A1B852",
"T.	c #8FB05C",
"U.	c #B6B958",
"V.	c #88AF5B",
"W.	c #97B750",
"X.	c #98B654",
"Y.	c #85AF5B",
"Z.	c #91B159",
"`.	c #82AD5E",
" +	c #B2B759",
".+	c #99B751",
"++	c #93B455",
"@+	c #8FAF5D",
"#+	c #B0B759",
"$+	c #A0B753",
"%+	c #9CBA4D",
"&+	c #A5B657",
"*+	c #ABB954",
"=+	c #84AE5B",
"-+	c #9FB852",
";+	c #9CB25B",
">+	c #9FB950",
",+	c #AFB659",
"'+	c #A0B94F",
")+	c #AFB759",
"!+	c #85AD5E",
"~+	c #A2B754",
"{+	c #B6B858",
"]+	c #85AD5D",
"^+	c #8CAE5D",
"/+	c #AFB856",
"(+	c #ACB758",
"_+	c #ABB953",
":+	c #7FAC5F",
"<+	c #9DB25B",
"[+	c #9EB35A",
"}+	c #91B454",
"|+	c #B2B858",
"1+	c #9DB655",
"2+	c #ACB659",
"3+	c #99B15C",
"4+	c #9FB35B",
"5+	c #AAB952",
"6+	c #96B554",
"7+	c #9FB654",
"8+	c #9AB555",
"9+	c #91B259",
"0+	c #A3B853",
"a+	c #9BB25B",
"b+	c #A7B45A",
"c+	c #91B258",
"d+	c #B1B858",
"e+	c #99B458",
"f+	c #AAB659",
"  . + + @ # $ % & * =         - + ; = > + + + + + + + , ' = ) ! ~ { ] ^ / ( _   : + + _ < [ % } +           : + + = | + + + + + + ",
"1 2 + + + + + } + + 3 4 5 / 6 + + + ; + 7 8 9 0 8 + + ] a b c ] d { e f g & + h / + + + + + } + + _ 1 * i 1 ' + + ; + 8 7 7 j } + ",
"+ + + + + + + + + + + k + + l 3 ( + + m { n % ] o + + p ] q r j % s t u v + + + + + + + + + + + + + k + + + 3 @ + + 8 w w x ] { m ",
"+ + + + + + + + + + -   / k y     z + A B C   D E F + + 7 G + + # H I + + + + + + + + + + + + + + - 2 = & + =   J + K q 8 L M E E ",
"+ 8 + + $ N O o _ 2   P   2 -   Q i @   1 8 R / + + + + + + + + + S + + S S + + 8 + + T E + 0 U 2   b   2 - = V   - b   + 5   ' + ",
"W ] X X ] N ] ] Y > > 8 Z ` =  .u ..+.+.' + + + + + + @ > + + + 8 = @.y   #.8 $.%.v + % [ 0 ] { +.> * - &.*.=.{ -.+.+.- + + 8 + + ",
";.>.,.m m x x 9 + + + + 8 % G E ] G $ ] ~ + + + m + + =   > b / '.{ ).!.b >   1 ~.{.+ N G x ].8 + + + & { { ,.] 0 v ] N + + + m 7 ",
"y + + + @.6 & + + + + + + p x E {.~ ] X 8 N ^.p % 8 + > 1 /.  R [ ] (.% _.    :.+ + + ( 6 - + + + + + + ! ] ,.j 8 ] ! } O G ! ] ! ",
"+ & > <.  = ' + + + + + + + & + + + & + 8 ^.~ ].[.+ + + + + k 8 + 7 ].! + + + + + }.l =   :.+ + + + + + + & + & + & + + ].~ ^.[ + ",
"+ ' |.1.2 > + + + 5 ' + 5   & + + + + + ; 5 + + ' 5 S + + + / 1 ' 5 S + + + + + + 2 1.2 L + + + * l + ' 1 - + + + + + * 5 S + + 5 ",
"+ + + + + + + + + 1 1.I b = & @ 4 ' + + 2.= 3.+ >   6 + + +     2   - + + + + + + + + + + + + + < 1 4.2   z z 4 - + + @   L + ; = ",
"+ + + + + + + + + S @.z = > + > = 1 6 h .     5.6.  7.6 / # |     = - 3 = # + + + + + + + + + + 8 : 5 8.2 + -   = @   (     9.0.a.",
"+ + + + + + + + + + + & * S + + * 2 i @.6 i 1 b.] c.] = 1 2 2   b l @.i 1.+ + + + + + + + + + + + + + * * + + * 3 i 2 d.i i e.] f.",
"+ + + + + /.& + + + + + + + + > # + + + + + + + ,.7 ,.# + + * ( y + + + + + + + + + + + 3 I + + + + + + + + - < 8 + + + + + + ! ~ ",
"R   < ' 2 = * _ = 1 + + + + + @ 8.* + + + + + + ! + X m + + + + + + + _ z y <.' = 2 ' 3   _ _ 1 = + + + + + g.  # + + + + + + [.} ",
":.    i     i     I + + + + + + 5 + + + 8 8 + $ ] G $ { ~ + + & 2.h.+     / 4 '     i     i     > + + + + + + ; ' + + 8 8 + ,.] j ",
"8 i ;.i.i = }.. z & < + + + + + + + + + j G ~ j ] j.k.l.{ & + + 4 = g.y b = 8.5 @ i i.;.= < . . k 3.l + + + + + + + + ].j ~ G ] % ",
"+ + + + + + /   ; i 2 + + + + + + + + + 7 G G G m.Q   +.+ + X X & n.X + + + + + + + + + + ;.  _ 3./ 5 + + + + + + + + + G G G E c ",
"8 + + 8 8 o.p.  3 4.' + + + + + + + + + + + + + * y y + + & ] ] w m ] [ & & + 8 + + 8 & G q.  i r.4.+ + + + + + + + + + + + + & y ",
"% ~ x j } % e s.$ % t.# + +.. + + > +.+ + + + + + + + + + + F % % u.v.w.b = x.{ N ^.] X { % y.z.% A.> k > > + + :.+.* + + + + + + ",
"] j N ] { ].] o ] m.1 L 1.  ;.+ +.    y 2 b L + + + + + + + + 8 B.  b b     C.] ] m { ] ,.] j ] j D.b @   2 + <.    _ < b / + + + ",
"9 X + 9 9 9 9 7 9 + 3     = + 3.      q E.  6 + + + + + + + + + +.2 - - - - + X 9 + m 9 9 9 O X } -       - _     = F.s     + + + ",
"+ + + + + + + + + + 8 3.3.z + + - 3.Y % s.< + + + + + + + + + + + + + + + + + + + + + + + + + + + + > 3.> + + S < G.] H.< ; + + + ",
"+ 1./ l + d.1 g.+ + + + + + + + + } 0 F + + + + + + + ; + 3 | + + + + + + ; + + J 1 _ + <./ 3 + + + + + + + + + + o o + + + + + + ",
"+ |.I.6 J.    L + + + + + + + + + + + + + + + + + + + 8.h.t B ~ + + + 4 5 = > + @ K.K._     i * + + + + + + + + + + + + + + + + + ",
"( 1 L.% ] M.4 = 6 S + + + y   +.8.l ( - + + } , ~ ] % N.s O.] O ( + + =   |.= B.4 P.% u Q.L = b 5 + + + ' 1.h./ ( R R + + + ,.8 x ",
"l y R.j S.5 + l l + + + + > 1     1   @.+ d.T.] j ] s  .).U.>.V.  & + l l ' l l 5 4.E ].y & l l S + + + 4.1     1   i + y i { j { ",
"k i 6 W.1 1.+ + + + + + + + ' . . . . + + <.= 5.m ,.X.= b W.+ R y + + + + . 3 * @ 1 5 Y.b y + + + + + + + + . . . . S + * 2 Z.,.9 ",
"    = 1 / = i * + + + + + + + + + + + + + + + + + + + + + + + + ~ X + } 9 >       =   1.= = y + + + + + + + + + + + + + + + + + + ",
"`.p.v.| r. +.+' + + + + + + + + + 5 2 + S + S + + + + + + + 8 8 [ ] X j ] ! ++Q.= (.@+' #+$+l + + + + + + + + + + 2 5 & + S & + + ",
"o.f ] j j % } ].+ 8 ].+ + + * @ %+b   @ / z = I - @ y + + & % ] [ ] {.] % % % ] &+] % E ] [.].7 & *+} + + + @ & @.  3 =+; i 3.' @ ",
"] ] v.(.] G ] ] & j 0 + + + /   3.-+p.q.{ ;+      b - + + + X { [ >+,+v.E.   +] ] U.,+] x j % } ^.{ ~ + + 4   i '+K.V ] )+=       ",
"] e !+V.m + m m + m 7 + + + / b ; j ~+ +{+]+  # 3.<.+ + + + + O } y = E.b   q.] ] ^+  X + ~ m 8 ~ O + + + 4   - p /+(+% P.  @._ > ",
"& & @ + + + + + + + + + + + + + + 8 m ]._+:.i.+ + + + + + + + + + + . R S 2 8.W.+ @ l + + + + + + + + + + + + + & T N ].l @ 8 + + ",
"+ + + + + + + + + + + + + + + + + + + + + + S 4.+ + + + + + + + + + + + + & ' + + + + + + + + + + + + + + + + + + + + + + + y + + ",
"+ + + + + + + + + + + + + + + + + + + + + + 6   k | <.+ + + + + + + + + + + + + + + + + + + + + + + + + + + + + + + + + + 3.:+' +.",
"= i.<.. ' + # ; + + + + + + + 6 = . + + + <.    @.  3.3 / + + + + + + + + + _ = ;.* . <.+ g.- + + + + + + + . = 3 + + + * 2   >   ",
"1 1 @   1 >   z . * + :.i S * ' / 2.' l + @     / 6 ' 1 y + + + + + + + + + + 6 = z     -   /.5 . + l P ' l + 1.= & l ' I       i ",
"@ 1 i.>   = l.9.8.l .     1./ y 5 # i = 5 I R R y + + + + + + + + F O + + + I : ;.h z =   <+[+  . y /   4 = . + R H = > * ( R _ + ",
"  # + + @ }+$ % + * =         - + ; = > + + + + + + + ! ' 8.) ! ~ { ] ^ / ( _   3 + + _ 3 [ % ~ 8           3 + + = | + + + + + + ",
"1 |.+ + + + 8 ~ + + 3 4 5 / 6 + + + ; + 7 8 X 0 + + + ] |+  c ] j { e f D.& & 1./ + + + + + ~ + + :.1 * i 1 ' + + ; + 8 7 7 j } + ",
"+ + + + + + + + + + + k + + l < R + + m { n % ] w + + p % q r j % s t u ~.+ + + + + + + + + + + + + k + + + < @ + + 8 x w x ] { O ",
"+ + + + + + + + + + -   / k y     z + 1+2+C   D G {.+ + 7 G + + Z L I + + + + + + + + + + + + + + - 2   & + =   J + K q 8 L M E G ",
"+ 8 + + {.N O o _ 1.  b   1.<.  V i @   1 8 R / + + + + + + + + + & + + & S + + 8 + + T >.+ o U 1.  b   1.- = V   - b   + 5   ' + ",
"W ] m X ] N ] ] Y > +.8 . ` = 3+u ..+.+.' + + + + + + J > + + + 8 = @.y   #.8 $.%.v + % [ o ] { +.+.* - 4+*.^+{ -.+.+.- + + 8 + + ",
"/.>.,.m m x x 9 8 + + + 8 % G E ] G $ ] ~ + + + m + + =   > b 1 '.U.).P.b > b 1 5+{.+ [ G x ].8 + + + & { { ,.] 0 T ] N + + + O 7 ",
"y + + + 3 6 & + + + + + + p x E $ ~ ] X 8 n ^.p % 8 + +.1 ;.  ( [ ] #+% 6+    :.+ + + ( 6 - + + + + + + , ] ,.j 7 ] , } O G ! ] ! ",
"+ & B.<.  = ' + + + + + + + & + + + & + 8 ^.~ ^.[.+ + + + + k 8 + 7 ].,.+ + + + + i.l =   :.+ + + + + + + & + & + & + + ].~ ^.[ + ",
"+ ' 2.1.2 > + + + ; ' + 5   & + + + + + ; 5 + + ' 5 S + + + 1 1 ' ; S + + + + + + 2 1.2 L + + + * l + ' 1 - + + + + + * 5 & + + 5 ",
"+ + + + + + + + + 1 1.y b = & @ 4 ' + + 2.= @ + >   6 + + +     2   - + + + + + + + + + + + + + < 1 5 2   z z | - + + @   L + ; = ",
"+ + + + + + + + + S /.z = > + +.= 1 6 h #     7+8+  c 6 / # 4     = - 3   # + + + + + + + + + + + @.5 8.2 + -   = @   R     9+0+1 ",
"+ + + + + + + + + + + & l ' + + * 2 1 @.h 1 1 b.] c.{ = 1 2 2   b ; @.1 1.+ + + + + + + + + + + + + + l * + + * 3 1 |.J 1 1 a+] f.",
"+ + + + + @.& + + + + + + + + > # + + + + + + + T 7 T }++ + * # y + + + + + + + + + + + < I + + + + + + + + - 3.8 + + + + + + ,.~ ",
"R   < ' 2 = * _   1 + + + + + @ 8.* + + + + + + [.+ m m + + + + + + + _ - y I ' = 2 ' 3   _ z 1 = + + + + + z   # + + + + + + 9 } ",
":.    i     2.    I + + + + + + 5 + + + 8 8 + $ ] G $ { ~ + + & |.4 +     / 4 '     i     i     > + + + + + + 5 ' + + 8 8 + ,.] j ",
"8 i ;.B.i = B.i.z & 3.+ + + + + + + + + j G } j ] j.k.b+{ & + + h.= g.y b = 8.5 @ i B.| = 3 i.. k @ l + + + + + + + + ].j ~ E ] % ",
"+ + + + + + 1   ; i 2 + + + + + + + + + 7 x G G m.Q.  d.+ + X X & n.X + + + + + + + + + + ;.  _ 3./ 5 + + + + + + + + + G G G G c ",
"8 + + 8 8 w p.  3 y ' + + + + + + + + + + + + + l I I + + & ] ] x m ] [ + + + 8 + + 8 & G q.  1 l 4.+ + + + + + + + + + + + + & I ",
"% ~ x 0 } % e c+$ % t.( + > . + + B.> + + + + + + + + + + + F % % u.v.w.b = x.{ N ^.] X { % y.n % d+> k > > + + _ > * + + + + + + ",
"] j [ ] { ].] o ] m.1 L 1.  | + >     W.2 b H + + + + + + + + 8 B.  V b     C.] ] X { ] ! ] j ] j D.b J   |.+ <.    z 3.b / + + + ",
"9 9 & 9 9 9 9 7 9 + 3     = + 3.    = q E.  6 + + + + + + + + + +.2 - - - - + X 9 + m 9 9 9 O X } -       - z     = l.s     + + + ",
"+ + + + + + + + + + 8 < < _ + + - 3 Y % s.3 + + + + + + + + + + + + + + + + + + + + + + + + + + + + > < d.+ + S 3 e+] H.3 5 + + + ",
"+ 1./ l + +.1 g.+ + + + + + + + + } 0 F + + + + + + + ; + 3 | + + + + + + ; + + d.1 _ + <.1 3 + + + + + + + + + + o o + + + + + + ",
"+ |. .L @     L + + + + + + + + + + + + + + + + + + + = 4 = f+~ + + + | y :+> + @ K.K.z     i * + + + + + + + + + + + + + + + + + "};
