/* XPM */
static char *_eef869e4c2f47d5c46cd909ad9e181aMpnbrsWiQw1cX0qM[] = {
/* columns rows colors chars-per-pixel */
"64 64 124 2 ",
"   c #161C2E",
".  c #171F30",
"X  c #1B2835",
"o  c #1F293A",
"O  c #222D3B",
"+  c #293536",
"@  c #3A4D3E",
"#  c #2A3847",
"$  c #35474F",
"%  c #354F59",
"&  c #305452",
"*  c #3D5156",
"=  c #36535A",
"-  c #395459",
";  c #3A5C5C",
":  c #3D5C64",
">  c #3D6462",
",  c #3E7365",
"<  c #415E59",
"1  c #4B6446",
"2  c #516D49",
"3  c #5B7A4D",
"4  c #446259",
"5  c #4C6C5A",
"6  c #547055",
"7  c #53745B",
"8  c #5A7D5B",
"9  c #617F5A",
"0  c #4C6565",
"q  c #44676E",
"w  c #49656F",
"e  c #446C6C",
"r  c #4E6868",
"t  c #506A69",
"y  c #487661",
"u  c #427D67",
"i  c #417D68",
"p  c #4D7D73",
"a  c #587675",
"s  c #50737A",
"d  c #658852",
"f  c #688C53",
"g  c #61865B",
"h  c #658B5C",
"j  c #688E5C",
"k  c #64905E",
"l  c #6B925C",
"z  c #7E935A",
"x  c #729B5C",
"c  c #7FA655",
"v  c #75A15E",
"b  c #7AA55D",
"n  c #7DA95E",
"m  c #4A8466",
"M  c #538A64",
"N  c #5B9163",
"B  c #4A8474",
"V  c #4F8A7A",
"C  c #54837F",
"Z  c #59807F",
"A  c #518C7D",
"S  c #639662",
"D  c #659865",
"F  c #6B9C61",
"G  c #71A060",
"H  c #7AAC7E",
"J  c #97B74F",
"K  c #98B74F",
"L  c #9BB94E",
"P  c #81AC5D",
"I  c #8BAF5B",
"U  c #90AF5C",
"Y  c #8DB256",
"T  c #89B058",
"R  c #93B552",
"E  c #9CB653",
"W  c #9EB850",
"Q  c #94B05B",
"!  c #9CB25A",
"~  c #A0B94F",
"^  c #A5B656",
"/  c #AAB755",
"(  c #A4B951",
")  c #ABB954",
"_  c #A5B459",
"`  c #A8B559",
"'  c #ABB659",
"]  c #ADB659",
"[  c #B0B955",
"{  c #B4B956",
"}  c #B7B957",
"|  c #B1B758",
" . c #B2B758",
".. c #B4B858",
"X. c #B8B958",
"o. c #83B177",
"O. c #83B37D",
"+. c #5C8686",
"@. c #5D8F8C",
"#. c #589284",
"$. c #5A928C",
"%. c #5B948E",
"&. c #659A83",
"*. c #619191",
"=. c #619B90",
"-. c #619996",
";. c #669D9D",
":. c #689F9F",
">. c #6AA49B",
",. c #70A794",
"<. c #6BA2A2",
"1. c #73A2A2",
"2. c #79A7A7",
"3. c #74ACA6",
"4. c #71A8A8",
"5. c #75ACAD",
"6. c #76ADAE",
"7. c #7DACAD",
"8. c #78B0AC",
"9. c #7CB2B3",
"0. c #80B7B8",
"q. c #86BDBE",
"w. c #88BFC0",
"e. c #8CC3C4",
/* pixels */
"P P X.X.K K K K L L P P P P P P K L L L K K K K K K K K K K K K L L L P P P P P K K K K K K K L L L K K K K K K L K K P P P P P ",
"P _ X.( { K ) X.( X.) ! P ' ) L K K L L K K T R R Y K L K K ) ~ X.{ X./ R X.K X.K K L K K K L P K L R K K K L ) X.( X.) ! P ' R ",
"P P P R ~ ( X.K ] ' P X.X.] { { ) X.( L P P E P X.P P P L L L X.( ] P ] X...X.[ X.L { L K P R P X.I P P R L K { L ] ' P X.X.] X.",
"P P P I X.X.L K I R P R W Y K K K L L L R K ( [ / P L L L L L L K P T P ~ P K K L L L L K R K ) X.I K R L L L L L T R P R W Y L ",
"=.H P G I L K K K K K K K K L K L K K L L L K K K K R L L L L K K K K K K K K K L L K K K K L L K K R L L K L K K K L L L L L L ",
"P F i P P I T P K L K P L K K L K K K K K P L L K P R P L Y K K K K K R P K K K L L K K K R P L K K P P R P K K K K K L P L L K ",
"S S P K R R R K L L L R P I P P R K Y T T R I T K P P R R K K K L L L L I Y P P I P K P Y K P R Y I P R K R K K K K K K R P I P ",
"&.G n P ( P ( K X.R R P R K I [ ) R P P P L R I K K L K ( Y R ( X.L P R P K L R X.K P P P T K P K L K K K ( P ( K X.R R P R K I ",
"P P P ( X.I X.X.P | K K K K K L K K R K R L K K { { { K { ..I X.' ..( K R K L L L L K K R L L L L ( X.L K X.I X.X.P | L K J K L ",
"P I P ) K ) K Y R K K K L L L L K K P T L P R R E P ^ ( K ( K K Y K K K K K L L L K Y P L P P L ! K I ) K K ) K Y R L L K K K K ",
"P P K K K K L L R R P L { K { { X.P R P P _ P P K K L L K K K K P K P L [ L X.( X.I P K P P X.P I K L K K K K K K Y R P L { L X.",
"P P X.K P I P ) Q ! I P ( K L ( L K K ( X.X.( X.K K ) L P P P R X.' P P R ~ ( ( ( K K K X.( X.[ { K K ) K P I P ) Q ! I P ( L L ",
"P { T ( K K K L ) L K L K K P K L L L L K K K L ( L ) K K K K L ( ) L L L R P P L K K L K K K K K ) ) L K K L L K ) L L K K K P ",
"P Q P Y K K P L R K K K K K K L L P L P K K L L P K K P K K P P P K L L L K K K K K Y K P L K K J P K P Y K L P L R L L K K K K ",
"P X.P ! T R P P R P R K L L L L K K K P L I P P I P ) P P P Y P P Y P K L K L L L L R P R R P I Y P Q R Q T R P P R P R K K L L ",
"P = P { { K P L K K K K L L K K K K K L L R K K K K ) ( T L K P K K K K L L L R K K K K L K K L K K L { { I K P K K K K L K L P ",
"4 P P I L L L L K I T K P R P K P P K K K T K K L L ) K [ K K K K I R Y I P I P I P K K K K P L K K K [ ) L L L K K I T K P R P ",
"% 4 n T L L K P R I P Y P T P T T K K K K K K K X.L X.) _ ) K Y P K P P K P T P T K R K K K L L L ) ) X.E X.L L P R I P Y P T R ",
"P P P P P K X.K X.K K K L L K P P P L L K K K K L L L P R K X.( ( L K K K K K K P R Y K K K K K L L K P P L L X.K X.K K K K L K ",
"P 7 P ' ) K X.X.' I P [ L X.( X.^ X.T R T K T J L L L L K K ) X.T X.P R X.[ ) X.! { _ K T K K T L L K K K L K X.X.' I P [ L X.( ",
"- P P X.X.K L P I I I ( [ ) [ [ ( L P P L T P I P P K K K L L L P I I K [ K [ [ ) [ Y P P K P P I P K K K K K K P I I I ( [ ) ) ",
"k N P ! { { L K K K K K K K K K L L R R L L R X.R K K K K L L L L L K K K K K K K K K R K K R ^ { R K L K K K K K K K K K K K X.",
"P P P K P P ( K K R P K P P Y P R K K K L L L K L L K K P T ! K L R Y R K I K P I K K K K L L L K K K L K P P ( K K R P K P P Y ",
"b P P P X.X.) P K P I P P { ' K P K K K P P R P L L ( X.....{ I L P R P P Q X.P P P K K T P P P K K X.{ ......) P K P I P P { ' ",
"y M M c P W J K K K Y R P R P K K K K K L R R K L P ( ( P T K R L L K T K P T I L K K K L R R R K R T K R P K R K K K Y R P R P ",
"P P P X.{ [ ) X.L X.K P P P I I K K K K L L K K L L K K K K K K [ ( ) I P I K I Y K K K L L L R L L L L K K K K X.L [ K I U Q P ",
"G P P P K L X.L { X.X.X.| X.X.L ( L ( K L R P P Y P K P K L X.{ X.{ X.X.{ X.{ X.{ L { K L P K P P T T I R L K X.L { X.{ { L K P ",
"P P P I X.X.~ L P Q P X...P ( ) ( ) K K P I X.! ] P Y R K L L ) R P P I X.Q ) K ) L ( K K P K ^ X.I I P L L K ( L P Q P X.P F i ",
"n b b P P | K K K K I Y K K K K L L L L L K K K K K L L L K K K K K K P K K K K L L L L K K K K L L L L L K L L L L P I Y ] P P ",
"i G G m m i v K P R K K L K K K L L L L L K K K K I R T L L K L K L K L K K K K L L L L K K K K L L P L R L K L K K K K K R K R ",
"i P P P P P P T T T L I P P R P K K L R K P I K K P P P P R K K L L L R P R P R I R K R K R P K K I P P T P K K K K X.{ ! R P R ",
"i i n P P P K K ( L L P P K P | P K P P P K R P K K K L L L L K { L L R R T P P ' P Y P P T K P P K K K K K K K K ( K L P ..K K ",
"P P P P | P X.) X.P K T P K K K ( K P T P K K K K L ( K { Q P X.X.) T K P K K K ) L T Y P R L Y L L ) L L { P X.) X.P K T P L ) ",
"P I X.R T [ K ] P ) K K K K K K K K R J K P K K { ] X.L K { K [ P ) L L K K K L L L K R K P R K X.( | X.K [ X.( ] P ) K K L [ ( ",
"4 P I [ K K L K L L L K L L [ K ( I P P K P I P Y R R L K K K K K K L L K K K ( [ T P P I P P R P L P K K K K K K K K K L L L [ ",
"P ' Q X.P R R K I P T R X.L ) X.) L L ( Q X.[ ( K L K K P T R J Q R P R ^ ) X.[ { L L L X.! X.~ ( K K K K P K R K P P T R X.L ) ",
"l P X.K P I T X.X.[ P Y L L P K L L L L X.X.~ ~ K { X.L L Y P K X.X.Y P K L K P K K K K ) ( L X.K [ ( X.K P I Y X.X.[ P Y K K P ",
"P P X.[ K K T K L L L L K T P K L K L R K L L L K K L K K L T R K K L K L P P Y K K K K T K K K K K K K K K K T L L L L K K I P ",
"l P P P R K P P R R K L K K K K K I R P K P R R P P K P R R P P P K R K K L K L K K P P I R P R K P R P P K K P P R R K K K K K ",
"l P P Y R P P P Y P K K K K K K K K K R K K P P P P X.E P P P P R P Y K L K L L L K L R K K R P R P Q { ..P P P P Y P K K K K L ",
"7 P P Y T K K K K K K K R K Y K R R K K K P L L K K K K L L L K K K K K R R L P L R K K K R Y K K L L K K K L L L K K K K R L Y ",
"P P ..) [ K K P K P P K P P P P P L K K K K L L L K X.[ X.L L T I P P I I P P P P P K K K K K K K K ( X.) [ L L P K P P K P P P ",
"P R P P ( K K R J K R R R K R T R I R L K K K L ) [ X.I P ~ K K R K R R K R L R T L P L L L L L L X.X.X.P ( L K R J K R R R K R ",
"P I K R R K X.X.X.K R L K ( ( Q I ( L L K K K L L L L K K L X.X.( X.R K ( L K X.P W ~ L L L L L L L L L L L L X.X.X.K R L L L X.",
"P - P P I L L P P P P X.{ X.) X.{ | P P P L P R P P L L K L L L P P P I X.( X.) { X.P K P K I P K P K L K L L L P P P P X.{ X.) ",
"% P P ' { X.K Y K K K K K K K K K K P P L Y P | P Y L L L K K K R K K K K K K K K L R P T R P I | P K L L L L K Y K K K K K K L ",
"u b P ( K I L L K K R K P R K P K K K K L L ~ { K K L L K K P L K K K K K P L T T L K K K K K { K K K K L K I K K K K R K P R K ",
"P P X.[ P _ ) L L P P Y P ] ! P P K K K I R K K K K K [ ' P X.K K P P P K Q [ P P R K K K Y I K K L L K [ P _ ) K K P P Y P X.' ",
"P Q ..! ! ) R T K K K K R ( R K K K L L T P P I K P X.X.P Q ) P K K L L K R ) R L L L L R P P P K I ' ) ! ! ) Y T K K K K R I N ",
"% X.X.( K K K K K L P P P P P P K K K K L L L L L L L K K K K K L L L P P P P P L L L L K L K K L L K K K K K K K L K P P P P P ",
"P Q P X.K K ) X.( X.) ! P ' [ L K K K K K K T R R Y K K K K ) ~ X.{ X./ R X.K X.L L K K K K K P K L R K K K K ) X.( X.) ! P Y Q ",
"P P P R K K { K ] ' P X.X.] { { ) X.( K P P E P X.P P P K K L X.( ] P ] X...X.[ X.K { K K P R P X.I P P R L L { L ] ' P X.[ R X.",
"P P ] ) [ ~ K L I R P R W Y K K K K L L R K ( [ / P K K K K K K K P T P ~ P K K L L K K K R K ) X.I J R K K L L K I R P R I Y L ",
"% l ! X.{ K L L K K K K K K K K ( K L L K K K K K K R K K K K K K K K L K K K K L L K K K K K K K L Y K L L L L K ( K ( K L ) X.",
"P l - ! P ( L L L L L P K K X...) K L K X.P K K L P R P K Y ~ ( K K L R P K K K K L L L K R P K K K P P Y P K K K ) X.X.P K ) ' ",
"P P _ X.' X.L X.L ^ K R P I P P ' ' ! Q Q ] ' T L ' P R R ( ( K ~ X.( L I Y P P T P L P Y K P R Y I P R ) R L ) K ( X.P Q P Y P ",
"2 P P ( P R X.' _ ! P P X.) ! P P P P P P X.^ I K ' P I ' ! ' ) X.X.Q R P K X.E X.K P P P T K P X.( R ) ) X.P ) X.X.! ' P P P P ",
"  P P P P P P P P P P P P X.P P P P P P P X.) { ( P P P P X.P P % P P P R R P ' K { [ [ R K [ L X.P P ..X.P P P X.P P P b + P P ",
"P P P P P N P P h P v P P P P n P P P P P P P ~ ! P P P P I P P < P l g P x P F P | ! P ( P P ! ! 9 P P P P P P P P d b f   1 @ ",
"3 P x & i B % % P P % P v j P - P P h n ; P P n P i P P P P P P j - = b P % b i v x P - P P P 8 P P % m P P i P P D n X X i #.X ",
"#     4.6.e.e.% l x % i 3.% P = < b % % P Q v x P u P o.b ,.= 5 % $.@.% % , i i > % < P P I P 8 P P % b P M >.P M V i -.i %.-.i ",
"e.#.#.e.q.e.e.e.s q B i i p ; i C ; i - j z = = e i O.e.4.q.9.#.9.e.1.i i 8.i V i i : j % 6 j % s > , 9.i i ;.A e.e.#.e.e.e.e.e.",
"e.e.e.e.e.e.9.;.;.;.;.-.t 2.q.q.e.e.q.1.r . ;.-.;.:.;.;.;.e.e.e.e.e.w O 7.e.q.e.e.<.6.q.q.. . $ e.e.e.e.e.q.;.6.e.e.e.e.e.e.e.0.",
"t +.;.;.;.;.;.;.q.e.e.t e.e.e.e.e.e.6.;.t O o e.e.9.;.9.e.e.e.e.e.;.Z   t 6.6.;.<.w.e.e.a * 0 *.;.4.6.6.<.;.+.  w e.e.e.e.6.<.<."
};
