/* XPM */
static char *bc54245067214834fb3f375443043dfcIOllKI9PZLAYtOI2[] = {
/* columns rows colors chars-per-pixel */
"64 64 196 2 ",
"   c None",
".  c #121828",
"X  c #141828",
"o  c #141929",
"O  c #141A2A",
"+  c #141B2B",
"@  c #151B2D",
"#  c #161B2D",
"$  c #151B2E",
"%  c #161B2E",
"&  c #151C2D",
"*  c #161C2D",
"=  c #151C2E",
"-  c #161C2E",
";  c #1A1F2F",
":  c #171D30",
">  c #191F30",
",  c #181E32",
"<  c #1C2130",
"1  c #1C2131",
"2  c #1E2131",
"3  c #1F2331",
"4  c #1E2232",
"5  c #1F2332",
"6  c #1C2338",
"7  c #1D243A",
"8  c #1F273E",
"9  c #232635",
"0  c #242735",
"q  c #262735",
"w  c #262934",
"e  c #282A37",
"r  c #2A2C36",
"t  c #20283F",
"y  c #292B38",
"u  c #2C2D3A",
"i  c #313139",
"p  c #37363B",
"a  c #36333D",
"s  c #37343D",
"d  c #35343F",
"f  c #36353F",
"g  c #3F3C3E",
"h  c #212A42",
"j  c #222A43",
"k  c #222B43",
"l  c #242C46",
"z  c #252E48",
"x  c #262F4A",
"c  c #28324E",
"v  c #29324E",
"b  c #393741",
"n  c #3A3841",
"m  c #2A3450",
"M  c #2B3552",
"N  c #2B3653",
"B  c #2C3754",
"V  c #2D3856",
"C  c #2F3B5A",
"Z  c #313D5E",
"A  c #323D5E",
"S  c #323E5F",
"D  c #403B42",
"F  c #423F40",
"G  c #433D43",
"H  c #375554",
"J  c #375555",
"K  c #375654",
"L  c #375655",
"P  c #385555",
"I  c #385654",
"U  c #385655",
"Y  c #374467",
"T  c #384569",
"R  c #3B486E",
"E  c #2B5467",
"W  c #3E4C73",
"Q  c #3F4D75",
"!  c #305F72",
"~  c #36677E",
"^  c #3A607D",
"/  c #34687C",
"(  c #484342",
")  c #4D4744",
"_  c #494349",
"`  c #4E4548",
"'  c #52484A",
"]  c #50494D",
"[  c #514A4E",
"{  c #585049",
"}  c #5B524A",
"|  c #564E51",
" . c #574E51",
".. c #585052",
"X. c #5A5153",
"o. c #5B5253",
"O. c #5E5150",
"+. c #5E5455",
"@. c #5C5457",
"#. c #63594D",
"$. c #605556",
"%. c #6C5B56",
"&. c #6E5D57",
"*. c #675A58",
"=. c #685B59",
"-. c #6B5D5A",
";. c #6E5F5B",
":. c #47694B",
">. c #486B4A",
",. c #507545",
"<. c #6F6252",
"1. c #726156",
"2. c #76625B",
"3. c #76635B",
"4. c #7F6F58",
"5. c #415079",
"6. c #44547E",
"7. c #4C577B",
"8. c #5D7574",
"9. c #667D7C",
"0. c #85735B",
"q. c #8D7A5E",
"w. c #907C5F",
"e. c #816B60",
"r. c #806B61",
"t. c #826D63",
"y. c #866F63",
"u. c #856E64",
"i. c #867064",
"p. c #877064",
"a. c #887065",
"s. c #887165",
"d. c #8C7366",
"f. c #8F7668",
"g. c #937869",
"h. c #947969",
"j. c #977B6B",
"k. c #987C6B",
"l. c #59813F",
"z. c #709F2F",
"x. c #7FB425",
"c. c #98D415",
"v. c #99D614",
"b. c #A0DF0F",
"n. c #A8E90A",
"m. c #B6FD00",
"M. c #B8FF00",
"N. c #958061",
"B. c #9B8564",
"V. c #9C806C",
"C. c #9D806C",
"Z. c #A4876E",
"A. c #A68D68",
"S. c #A6896E",
"D. c #A98B6F",
"F. c #AA8D6F",
"G. c #B1966D",
"H. c #BE9F73",
"J. c #C1A274",
"K. c #C4A475",
"L. c #C4A575",
"P. c #C8A876",
"I. c #3D7F94",
"U. c #465580",
"Y. c #485884",
"T. c #475F89",
"R. c #505B81",
"E. c #416687",
"W. c #47658C",
"Q. c #47678E",
"!. c #47698F",
"~. c #476E92",
"^. c #477093",
"/. c #477194",
"(. c #467798",
"). c #467B9A",
"_. c #467F9D",
"`. c #46829E",
"'. c #768B8A",
"]. c #7D9190",
"[. c #428EA3",
"{. c #468BA4",
"}. c #468FA7",
"|. c #4697AC",
" X c #8D9E9E",
".X c #A7A383",
"XX c #A7B5B4",
"oX c #B4BFBF",
"OX c #C6BC93",
"+X c #CEC296",
"@X c #E7D6A1",
"#X c #ECDDA7",
"$X c #CDD4D4",
"%X c #D9DFDF",
"&X c #ECEFEF",
"*X c white",
/* pixels */
"                                                                                                                                ",
"                                                                                                                                ",
"                                                                                                                                ",
"                                                                                                                                ",
"                                                                                                                                ",
"                                                                                                                                ",
"                                                                                                                                ",
"                                                                                                                                ",
"                                                                                                                                ",
"                                                                                                                                ",
"                                                                                                                                ",
"                                                                                                                                ",
"                                                                                                                                ",
"                                                                                                                                ",
"                                                                                                                                ",
"                                                                                    U 9.L                                       ",
"                                                        * * * * * *             L U U &X$XL     U v.U                           ",
"                                  U ,.U             * p @X+XOXOXOX#X{ *         U %X%XoXU L   U ,.M.b.                          ",
"                      U XXL     L U M.U U         * N.; * * O.O.* #.* * * * F *     U oX    L U z.M.U                           ",
"                    U *X*XU     U M.M.M.n.    * * * * j.u.s.j.j.5 j.j.j.d g.j.* $   L U   U M.U   U                             ",
"                    U U *X XL     U M.U U * D * j.d.&.j.j.i.j.j.j.s.j.j.i.j.+.j.*         :.M.U                                 ",
"                      U U   U v.L   U     * f.r.u.j.j.j.j.$.;.j.-.+.=.*.t.j.+.=.*           U               L L                 ",
"                            x.m.U       * 9 | +.+.+.| +.+.0 +.+.[ e +.[ d +.+..._                           b.U                 ",
"            L L             U U         5 +.+.* [ ..n +.[ * > d * * * O.* ..y * *                   U '.U L U U                 ",
"            z.>.                        * * * * * 0 * * * 2.j.j.K.P.* j.j.* * j.*       *           8.*X*XU                     ",
"            U U L l.U L                   p P.H.V.j.j.j.j.Z.K.D.P.P.F P.P.P.1.' *   $ * ( * *       L ].U U                     ",
"                U M.M.U         $       * <.P.P.S.j.F.H.J.P.P.P.5 * * P.P.P.0.* * E I.[.B.P.A.* *                               ",
"                  x.U           4.; $     * * * 2.k.P.P.P.* * * P.P.P.P.P.P.* 7 |.|.|.|..XP.P.P.r                               ",
"                            $ 5 P.P./ / ! * * * d V.P.P.P.i * ) P.P.P.P.P.{ k Y.|.|.|.|.|.P.P.P.g                               ",
"                          * w.P.P.P.|.|.|.|.|.Y.z * <.P.P.P.P.P.P.P.P.G.* 6.Y.Y.T.|.|.|.|.* * * $                               ",
"                          ) P.P.P.q.|.|.|.|.`.M Y.Y.c * * * * * * * * c Y.Y.Y.V Y.~._.^.Y.* *                                   ",
"                          * p p w * |.|.|.|.Y.* R Y.Y.Y.Y.Y.Y.Y.Y.Y.Y.Y.Y.Y.Y.* : 8 8 8 > $                                     ",
"                              * * 5.Q.{.{./.6 u d Y.Y.Y.Y.Y.Y.Y.Y.Y.Y.Y.R.7.b +.$ $                                             ",
"                                * * A Y.Y.c * 5 +.+.c Y.W c B 8 * * l %.j.j.+.5 *                                               ",
"                                      * * * * T * +.j.j.j.j.* * j.j.a j.` * * Y.$                                               ",
"                                          * 5.Y.Y.c * * O.O.* ` g.j.' * k U.Y.Y.*                                               ",
"                                        * M Y.Y.Y.Y.Y.Y.W t r.j.* A 2.y.A Y.Y.Y.* O                                             ",
"                                          ^ T.Q Y.Y.Y.Y.Y.M * 6 Y.Y.k * Y Y.Y.Y.Q.O                                             ",
"                                          O z z Y.Y.Y.Y.Y.Y.Y.Y.Y.Y.Y.Y.Y.Y.7 !.z                                               ",
"                                            $ z |.}.Y.Y.z Y.Y.Y.Y.Y.Y.Y.Y.Y.* *                                                 ",
"                                              O C A A * * E.(.).).).~ * A A .                                                   ",
"                                                                                                                                ",
"                                                                                                                                ",
"                                                                                                                                ",
"                                                                                                                                ",
"                                                                                                                                ",
"                                                                                                                                ",
"                                                                                                                                ",
"                                                                                                                                ",
"                                                                                                                                ",
"                                                                                                                                ",
"                                                                                                                                ",
"                                                                                                                                ",
"                                                                                                                                ",
"                                                                                                                                ",
"                                                                                                                                ",
"                                                                                                                                ",
"                                                                                                                                ",
"                                                                                                                                ",
"                                                                                                                                ",
"                                                                                                                                ",
"                                                                                                                                ",
"                                                                                                                                ",
"                                                                                                                                "
};
