/* XPM */
static char * heart_xpm[] = {
"65 64 248 2",
"  	c #80AC5E",
". 	c #91B455",
"+ 	c #9BB94E",
"@ 	c #8DB257",
"# 	c #92B454",
"$ 	c #B0B955",
"% 	c #B9B958",
"& 	c #9AB94E",
"* 	c #99B84F",
"= 	c #7FAC5E",
"- 	c #95B652",
"; 	c #98B850",
"> 	c #8FB356",
", 	c #A5B952",
"' 	c #9AB84F",
") 	c #98B653",
"! 	c #A5B951",
"~ 	c #9FB94F",
"{ 	c #B7B958",
"] 	c #B8B958",
"^ 	c #97B850",
"/ 	c #81AD5D",
"( 	c #92B554",
"_ 	c #94B553",
": 	c #8BB159",
"< 	c #8CB158",
"[ 	c #AAB953",
"} 	c #9EB94F",
"| 	c #89B05A",
"1 	c #82AD5D",
"2 	c #84AE5C",
"3 	c #8BB158",
"4 	c #88B05A",
"5 	c #98B750",
"6 	c #86AF5B",
"7 	c #9DB94F",
"8 	c #9CB94E",
"9 	c #A3B951",
"0 	c #B5B957",
"a 	c #B3B858",
"b 	c #81AC5E",
"c 	c #91AF5D",
"d 	c #B7B957",
"e 	c #B5B858",
"f 	c #A4B45A",
"g 	c #87AE5C",
"h 	c #85AE5B",
"i 	c #83AD5D",
"j 	c #B6B957",
"k 	c #9CB94D",
"l 	c #99B850",
"m 	c #A1B950",
"n 	c #A8B953",
"o 	c #B4B957",
"p 	c #AEB954",
"q 	c #ADB65A",
"r 	c #97B554",
"s 	c #97B15C",
"t 	c #7EAC5E",
"u 	c #BAB958",
"v 	c #A8B952",
"w 	c #B4B956",
"x 	c #B3B956",
"y 	c #97B751",
"z 	c #94B653",
"A 	c #9CB655",
"B 	c #ABB659",
"C 	c #9BB94D",
"D 	c #A5B45A",
"E 	c #B1B956",
"F 	c #AEB955",
"G 	c #B2B956",
"H 	c #87AF5A",
"I 	c #96B751",
"J 	c #8EB257",
"K 	c #97B652",
"L 	c #87AF5B",
"M 	c #95B05C",
"N 	c #A9B953",
"O 	c #A0B950",
"P 	c #81AC5D",
"Q 	c #83AC5E",
"R 	c #93B554",
"S 	c #9AB94F",
"T 	c #A7B952",
"U 	c #9DB850",
"V 	c #82AC5E",
"W 	c #A6B951",
"X 	c #A2B950",
"Y 	c #ABB758",
"Z 	c #92B455",
"` 	c #A1B35B",
" .	c #9AB15C",
"..	c #A0B35A",
"+.	c #8EB356",
"@.	c #8AB159",
"#.	c #7EAB5F",
"$.	c #9DB94E",
"%.	c #BAB959",
"&.	c #A0B35B",
"*.	c #88AD5E",
"=.	c #8DAE5D",
"-.	c #AAB55A",
";.	c #89B059",
">.	c #B1B955",
",.	c #A6B952",
"'.	c #9EB94E",
").	c #90AF5D",
"!.	c #8EAF5D",
"~.	c #A9B952",
"{.	c #AFB955",
"].	c #ACB954",
"^.	c #ADB954",
"/.	c #8AB059",
"(.	c #B1B759",
"_.	c #97B653",
":.	c #93B553",
"<.	c #96B652",
"[.	c #A4B951",
"}.	c #90B355",
"|.	c #83AE5C",
"1.	c #85AE5C",
"2.	c #83AD5C",
"3.	c #8CB258",
"4.	c #98B751",
"5.	c #A0B655",
"6.	c #9BB555",
"7.	c #91AF5C",
"8.	c #7FAB5F",
"9.	c #92B259",
"0.	c #A4B853",
"a.	c #82AD5C",
"b.	c #ADB758",
"c.	c #9EB851",
"d.	c #8EB357",
"e.	c #9BB25A",
"f.	c #A3B852",
"g.	c #95B653",
"h.	c #88AF5A",
"i.	c #90B455",
"j.	c #B4B858",
"k.	c #97B25A",
"l.	c #A6B45A",
"m.	c #B1B857",
"n.	c #9CB94F",
"o.	c #506A69",
"p.	c #B5B956",
"q.	c #84AD5E",
"r.	c #93B05C",
"s.	c #9AB850",
"t.	c #92B258",
"u.	c #A1B557",
"v.	c #8CC3C4",
"w.	c #98B25A",
"x.	c #A9B954",
"y.	c #B0B858",
"z.	c #4B3D44",
"A.	c #86AE5C",
"B.	c #86AD5D",
"C.	c #D1B187",
"D.	c #AE5D40",
"E.	c #669D9D",
"F.	c #79444A",
"G.	c #A7B55A",
"H.	c #9AB458",
"I.	c #A3B558",
"J.	c #9AB25C",
"K.	c #8CB257",
"L.	c #A3B45B",
"M.	c #7EAB5E",
"N.	c #161C2E",
"O.	c #9BB850",
"P.	c #A1B852",
"Q.	c #97B750",
"R.	c #91B159",
"S.	c #C77B58",
"T.	c #82AD5E",
"U.	c #B3B859",
"V.	c #B2B759",
"W.	c #99B751",
"X.	c #84AE5B",
"Y.	c #A0B94F",
"Z.	c #8AAE5D",
"`.	c #AFB759",
" +	c #85AD5E",
".+	c #88AF5B",
"++	c #AFB856",
"@+	c #ACB758",
"#+	c #8DAF5D",
"$+	c #87A147",
"%+	c #7FAC5F",
"&+	c #6E9654",
"*+	c #819F4B",
"=+	c #7E9D4D",
"-+	c #85A048",
";+	c #749853",
">+	c #7F9B50",
",+	c #6E9555",
"'+	c #809E4C",
")+	c #91B454",
"!+	c #A1A14F",
"~+	c #8AA148",
"{+	c #7B9B4E",
"]+	c #6F9654",
"^+	c #9DA14E",
"/+	c #819E4B",
"(+	c #719654",
"_+	c #959F4F",
":+	c #7C9C4E",
"<+	c #769754",
"[+	c #7A9853",
"}+	c #9FA14F",
"|+	c #88A147",
"1+	c #86A147",
"2+	c #90A14A",
"3+	c #A0A14F",
"4+	c #8FA14A",
"5+	c #90B356",
"6+	c #739853",
"7+	c #759852",
"8+	c #719753",
"9+	c #769951",
"0+	c #86A048",
"a+	c #729753",
"b+	c #749852",
"c+	c #7B9C4E",
"d+	c #9FB654",
"e+	c #869E4D",
"f+	c #7E9853",
"g+	c #709753",
"h+	c #7F9D4C",
"i+	c #829F4A",
"j+	c #799A4F",
"k+	c #91B259",
"l+	c #A3B853",
"m+	c #969F4F",
"n+	c #89A049",
"o+	c #9BB25B",
"p+	c #A7B45A",
"q+	c #83AD5E",
"r+	c #91B258",
"s+	c #93B357",
"t+	c #AAB757",
"u+	c #97B555",
"v+	c #B1B858",
"w+	c #94B15A",
"x+	c #99B458",
"y+	c #AAB659",
"  . + + @ # $ % & * =         - + ; = > + + + + + + + , ' = ) ! ~ { ] ^ / ( _   : + + _ < [ % } +           : + + = | + + + + + + ",
"1 2 + + + + + } + + 3 4 5 / 6 + + + ; + 7 8 9 0 8 + + ] a b c ] d { e f g & + h / + + + + + } + + _ 1 * i 1 ' + + ; + 8 7 7 j } + ",
"+ + + + + + + + + + + k + + l 3 ( + + m { n % ] o + + p ] q r j % s t u v + + + + + + + + + + + + + k + + + 3 @ + + 8 w w x ] { m ",
"+ + + + + + + + + + -   / k y     z + A B C   D E F + + 7 G + + # H I + + + + + + + + + + + + + + - 2 = & + =   J + K q 8 L M E E ",
"+ 8 + + $ N O o _ 2   P   2 -   Q i @   1 8 R / + + + + + + + + + S + + S S + + 8 + + T E + 0 U 2   b   2 - = V   - b   + 5   ' + ",
"W ] X X ] N ] ] Y > > 8 Z ` =  .u ..+.+.' + + + + + + @ > + + + 8 = @.y   #.8 $.%.v + % [ 0 ] { +.> * - &.*.=.{ -.+.+.- + + 8 + + ",
";.>.,.m m x x 9 + + + + 8 % G E ] G $ ] ~ + + + m + + =   > b / '.{ ).!.b >   1 ~.{.+ N G x ].8 + + + & { { ,.] 0 v ] N + + + m 7 ",
"y + + + @.6 & + + + + + + p x E {.~ ] X 8 N ^.p % 8 + > 1 /.  R [ ] (.% _.    :.+ + + ( 6 - + + + + + + ! ] ,.j 8 ] ! } O G ! ] ! ",
"+ & > <.  = ' + + + + + + + & + + + & + 8 ^.~ ].[.+ + + + + k 8 + 7 ].! + + + + + }.l =   :.+ + + + + + + & + & + & + + ].~ ^.[ + ",
"+ ' |.1.2 > + + + 5 ' + 5   & + + + + + ; 5 + + ' 5 S + + + / 1 ' 5 S + + + + + + 2 1.2 L + + + * l + ' 1 - + + + + + * 5 S + + 5 ",
"+ + + + + + + + + 1 1.I b = & @ 4 ' + + 2.= 3.+ >   6 + + +     2   - + + + + + + + + + + + + + < 1 4.2   z z 4 - + + @   L + ; = ",
"+ + + + + + + + + S @.z = > + > = 1 6 h .     5.6.  7.6 / # |     = - 3 = # + + + + + + + + + + 8 : 5 8.2 + -   = @   (     9.0.a.",
"+ + + + + + + + + + + & * S + + * 2 i @.6 i 1 b.] c.] = 1 2 2   b l @.i 1.+ + + + + + + + + + + + + + * * + + * 3 i 2 d.i i e.] f.",
"+ + + + + /.& + + + + + + + + > # + + + + + + + ,.7 ,.# + + * ( y + + + + + + + + + + + 3 I + + + + + + + + - < 8 + + + + + + ! ~ ",
"R   < ' 2 = * _ = 1 + + + + + @ 8.* + + + + + + ! + X m + + + + + + + _ z y <.' = 2 ' 3   _ _ 1 = + + + + + g.  # + + + + + + [.} ",
":.    i     i     I + + + + + + 5 + + + 8 8 + $ ] G $ { ~ + + & 2.h.+     / 4 '     i     i     > + + + + + + ; ' + + 8 8 + ,.] j ",
"8 i ;.i.i = }.. z & < + + + + + + + + + j G ~ j ] j.k.l.{ & + + 4 = g.y b = 8.5 @ i i.;.= < . . k 3.l + + + + + + + + ].j ~ G ] % ",
"+ + + + + + /   ; i 2 + + + + + + + + + 7 G G G m.Q   +.+ + X X & n.X + o.o.o.o.o.+ + + + ;.  _ 3./ 5 + + + + + + + + + G G G E c ",
"8 + + 8 8 p.q.  3 4.' + + + + + + + + + + + + + * y y + + & ] ] o.o.o.o.o.o.o.o.o.o.o.& G r.  i s.4.+ + + + + + + + + + + + + & y ",
"% ~ x j } % e t.$ % u.# + +.. + + > +.+ + + + + + + + + + + F o.o.o.o.o.o.v.v.v.v.o.o.o.{ % w.x.% y.> k > > + + :.+.* + + + + + + ",
"] j N ] { ].] o ] m.1 L 1.  ;.+ +.    y 2 b L + + z.z.z.+ + + o.o.o.o.v.z.z.z.v.v.v.o.o.o.] j ] j A.b @   2 + <.    _ < b / + + + ",
"9 X + 9 9 9 9 7 9 + 3     = + 3.      q B.  6 + z.C.C.D.z.o.o.o.o.E.E.z.F.D.D.z.v.v.v.o.o.o.O X } -       - _     = G.s     + + + ",
"+ + + + + + + + + + 8 3.3.z + + - 3.Y % t.< o.z.D.C.C.D.D.z.o.o.E.E.z.F.F.D.D.F.z.v.v.E.o.o.o.o.+ + > 3.> + + S < H.] I.< ; + + + ",
"+ 1./ l + d.1 g.+ + + + + + + + + } 0 F o.o.z.D.D.D.C.C.D.D.z.E.E.z.F.F.D.D.F.F.F.z.v.E.E.E.o.o.o.+ + + + + + + + o o + + + + + + ",
"+ |.J.6 K.    L + + + + + + + + + + + o.o.z.D.D.D.D.C.C.D.D.D.z.z.F.F.F.D.D.F.F.F.F.z.E.E.E.E.o.o.o.+ + + + + + + + + + + + + + + ",
"( 1 L.% ] M.4 = 6 S + + + y   +.8.l o.o.z.D.D.D.D.D.C.C.C.D.D.D.F.F.F.C.C.C.F.F.F.F.F.z.E.E.E.E.N.o.+ + ' 1.h./ ( R R + + + ,.8 x ",
"l y O.j P.5 + l l + + + + > 1     o.o.z.D.D.D.D.D.C.D.D.D.C.D.D.F.F.C.D.D.D.C.F.F.F.F.F.z.E.E.E.N.N.o.+ 4.1     1   i + y i { j { ",
"k i 6 Q.1 1.+ + + + + + + + o.o.o.o.z.D.D.D.D.D.C.D.D.D.D.D.C.C.C.C.D.D.D.D.D.C.F.F.F.F.F.z.E.E.N.N.N.+ + + . . . . S + * 2 R.,.9 ",
"    = 1 / = i * + + + + + o.o.o.o.o.z.D.D.D.D.S.D.D.D.C.D.D.D.D.D.D.D.D.D.D.D.D.S.F.F.F.F.z.E.E.N.N.N.N.+ + + + + + + + + + + + + ",
"T.q.U.| s.V.W.' + + + + + o.o.N.v.v.z.D.D.D.D.S.D.D.C.C.C.D.D.D.D.D.D.D.D.D.D.D.S.F.F.F.F.z.v.E.N.N.N.N.+ + + + + 2 5 & + S & + + ",
"p.f ] j j % } ].+ 8 ].+ + o.o.N.v.v.z.D.D.S.S.S.D.C.C.C.C.C.D.D.D.D.D.D.D.D.D.D.S.S.S.F.F.z.v.v.N.N.N.N.N.+ @ & @.  3 X.; i 3.' @ ",
"] ] U.(.] G ] ] & j 0 + o.o.N.N.v.v.z.S.S.S.S.S.D.D.C.C.C.D.D.D.D.D.D.D.D.D.D.D.S.S.S.S.S.z.v.N.N.N.N.N.N.4   i Y.Z.V ] `.=       ",
"] e  +.+m + m m + m 7 + o.N.N.N.v.v.v.z.S.F.F.F.S.D.D.C.D.D.C.D.D.D.D.D.D.D.D.S.F.F.F.S.z.v.v.N.N.E.E.N.N.4   - p ++@+% #+  @._ > ",
"& & @ + + + + + + + + N.N.N.N.N.N.v.v.v.z.F.F.F.F.S.D.D.D.C.S.S.D.D.D.D.D.D.S.F.F.F.F.z.v.N.N.N.o.o.E.E.N.N.+ + & T N ].l @ 8 + + ",
"+ + + + + + + + + + $+N.N.N.E.E.N.N.v.v.v.z.F.F.F.F.S.D.D.D.S.D.D.D.D.D.D.S.F.F.F.F.z.v.N.N.N.o.o.o.o.E.N.N.+ + + + + + + + y + + ",
"+ + + + + + + + + $+N.N.E.E.E.E.E.E.E.v.v.v.z.F.F.F.F.S.D.D.D.D.S.D.D.D.S.F.F.F.F.z.o.o.o.o.o.o.o.o.o.E.E.N.N.+ + + + + + 3.%+' +.",
"= i.<.. ' + # ; $+$+N.N.E.E.E.E.E.E.E.E.v.v.v.z.F.F.F.F.S.D.D.D.D.D.D.S.F.F.F.F.z.v.v.E.o.o.o.o.o.o.o.o.E.N.N.&+3 + + + * 2   >   ",
"1 1 @   1 >   *+=+-+N.N.E.E.E.E.E.E.E.E.E.v.v.v.z.F.F.F.F.S.D.D.D.D.S.F.F.F.F.z.v.v.E.E.E.E.o.o.o.o.o.o.E.N.N.;+= & l ' I       i ",
"@ 1 i.>   = l.>+,+N.N.E.E.E.E.E.E.E.E.E.E.E.v.v.v.z.F.F.F.F.S.D.D.S.F.F.F.F.z.v.E.E.E.E.E.E.E.o.o.o.o.o.E.N.N.$+'+H = > * ( R _ + ",
"  # + + @ )+$ !+$+N.N.E.E.E.E.E.E.E.E.E.E.E.E.E.E.E.z.F.F.F.F.S.S.F.F.F.F.z.o.E.E.E.E.E.E.E.E.o.o.o.o.o.E.N.N.$+$+= | + + + + + + ",
"1 |.+ + + + 8 ~+$+N.N.E.E.E.E.E.E.E.E.E.E.E.E.E.E.E.E.z.F.F.F.D.D.F.F.F.z.o.E.E.E.E.E.E.E.E.E.o.o.o.o.o.E.N.N.$+$+; + 8 7 7 j } + ",
"+ + + + + + + $+$+N.N.E.E.E.E.E.E.E.E.E.E.E.E.E.E.E.E.E.z.F.F.D.D.F.F.z.o.E.E.E.E.E.E.E.E.E.E.o.o.o.o.o.E.N.N.{+$++ 8 x w x ] { O ",
"+ + + + + + + $+$+N.N.E.E.E.E.E.E.E.E.E.E.E.E.E.E.E.E.E.o.z.F.D.D.F.z.o.o.E.E.E.E.E.E.E.E.E.E.o.o.o.o.o.N.N.N.]+{++ K q 8 L M E G ",
"+ 8 + + {.N O ^+/+;+N.N.E.E.E.E.E.E.E.E.E.E.E.E.E.E.E.E.o.o.z.z.z.z.o.o.o.E.E.E.E.E.E.E.E.E.E.o.o.o.o.N.N.N.N.(+]+- b   + 5   ' + ",
"W ] m X ] N ] ] _+:+N.N.N.E.E.E.E.E.E.E.E.E.E.E.E.E.E.E.o.o.o.o.o.N.N.o.o.E.E.E.E.E.E.E.E.E.o.o.o.o.N.N.N.<+[+}+-.+.+.- + + 8 + + ",
"/.>.,.m m x x 9 |+$+$+N.N.N.E.E.E.E.E.E.E.E.E.E.E.E.E.E.o.o.o.o.o.N.N.o.o.E.E.E.E.E.E.E.E.E.o.o.o.E.$+1+}+}+2+3+0 T ] N + + + O 7 ",
"y + + + 3 6 & + + $+$+$+$+N.N.E.E.E.E.E.E.E.E.E.E.E.E.o.o.o.o.o.o.N.N.o.o.o.E.E.E.E.E.E.E.E.E.E.E.$+$+$+4+3+2+j 7 ] , } O G ! ] ! ",
"+ & 5+<.  = ' + + + + + $+$+N.N.E.E.E.E.E.E.E.E.E.E.E.o.o.o.N.N.N.N.N.N.N.o.o.o.o.E.E.E.E.E.$+$+$+$+$+$++ & + & + & + + ].~ ^.[ + ",
"+ ' 2.1.2 > + + + ; ' + 5 ]+1+$+E.E.E.E.E.E.E.E.E.o.o.o.N.N.N.N.N.N.N.N.N.N.N.$+$+6+;+6+7+$+$+$+-+l + ' 8+- + + + + + * 5 & + + 5 ",
"+ + + + + + + + + 1 1.y b = 1+{+9+0+$+$+a+&+@ + :+]+b+$+$+$+]+]+N.N.N.N.N.$+$+$+$+$+$+$+$+$+$+$+< 1 5 6+  z z | - + + @   L + ; = ",
"+ + + + + + + + + S /.z = > + c+&+8+b+b+#     d+e+]+f+b+g+h+9+]+]+&+i+j+]+h+$+$+$+$+$+$+$+$++ + + @.5 8.2 + -   = @   R     k+l+1 ",
"+ + + + + + + + + + + & l ' + + * 2 1 @.b+8+1 m+3+n+}+&+8+2 2   b ; @.1 1.+ $+$+$+$+$+$++ + + + + + + l * + + * 3 1 |.J 1 1 o+] f.",
"+ + + + + @.& + + + + + + + + > # + + $+$++ + + T 7 T )++ + * # y + + + + + + + + + + + < I + + + + + + + + - 3.8 + + + + + + ,.~ ",
"R   < ' 2 = * _   1 + + + + + @ 8.* + + + + + + [.+ m m + + + + + + + _ - y I ' = 2 ' 3   _ z 1 = + + + + + z   # + + + + + + 9 } ",
":.    i     2.    I + + + + + + 5 + + + 8 8 + $ ] G $ { ~ + + & |.4 +     / 4 '     i     i     > + + + + + + 5 ' + + 8 8 + ,.] j ",
"8 i ;.5+i = 5+i.z & 3.+ + + + + + + + + j G } j ] j.k.p+{ & + + h.= g.y b = 8.5 @ i 5+| = 3 i.. k @ l + + + + + + + + ].j ~ E ] % ",
"+ + + + + + 1   ; i 2 + + + + + + + + + 7 x G G m.q+  d.+ + X X & n.X + + + + + + + + + + ;.  _ 3./ 5 + + + + + + + + + G G G G c ",
"8 + + 8 8 w q.  3 y ' + + + + + + + + + + + + + l I I + + & ] ] x m ] [ + + + 8 + + 8 & G r.  1 l 4.+ + + + + + + + + + + + + & I ",
"% ~ x 0 } % e r+$ % u.( + > . + + 5+> + + + + + + + + + + + F % % s+U.t+b = u+{ N ^.] X { % w.n % v+> k > > + + _ > * + + + + + + ",
"] j [ ] { ].] o ] m.1 L 1.  | + >     Q.2 b H + + + + + + + + 8 5+  V b     w+] ] X { ] ! ] j ] j A.b J   |.+ <.    z 3.b / + + + ",
"9 9 & 9 9 9 9 7 9 + 3     = + 3.    = q B.  6 + + + + + + + + + +.2 - - - - + X 9 + m 9 9 9 O X } -       - z     = l.s     + + + ",
"+ + + + + + + + + + 8 < < _ + + - 3 Y % t.3 + + + + + + + + + + + + + + + + + + + + + + + + + + + + > < d.+ + S 3 x+] I.3 5 + + + ",
"+ 1./ l + +.1 g.+ + + + + + + + + } 0 F + + + + + + + ; + 3 | + + + + + + ; + + d.1 _ + <.1 3 + + + + + + + + + + o o + + + + + + ",
"+ |. .L @     L + + + + + + + + + + + + + + + + + + + = 4 = y+~ + + + | y %+> + @ Z.Z.z     i * + + + + + + + + + + + + + + + + + "};
