/* XPM */
static char *ef8c4255b6fe4852d1e64ed9505ce0aaRBLqjtzihTa2Fzps[] = {
/* columns rows colors chars-per-pixel */
"64 64 243 2 ",
"   c None",
".  c #151B2D",
"X  c #161B2D",
"o  c #141B2E",
"O  c #151B2E",
"+  c #161B2E",
"@  c #151C2D",
"#  c #161C2D",
"$  c #151C2E",
"%  c #161C2E",
"&  c #161D2E",
"*  c #161F2F",
"=  c #172130",
"-  c #172131",
";  c #172231",
":  c #172332",
">  c #1B2631",
",  c #182432",
"<  c #182533",
"1  c #1C2731",
"2  c #182734",
"3  c #1D2831",
"4  c #192834",
"5  c #192B36",
"6  c #1A2C37",
"7  c #1A2E38",
"8  c #1B2F38",
"9  c #1B313A",
"0  c #1B323A",
"q  c #1C343B",
"w  c #1C353C",
"e  c #1D373D",
"r  c #1E3B3F",
"t  c #202D33",
"y  c #2B3F39",
"u  c #2E453A",
"i  c #29453D",
"p  c #314A3C",
"a  c #334E3D",
"s  c #36523E",
"d  c #37543F",
"f  c #1E3E40",
"g  c #1F3F41",
"h  c #1F4143",
"j  c #204243",
"k  c #204444",
"l  c #204545",
"z  c #214746",
"x  c #214846",
"c  c #254B46",
"v  c #2D4C40",
"b  c #224B48",
"n  c #224D49",
"m  c #244F4A",
"M  c #24524C",
"N  c #24544D",
"B  c #24554D",
"V  c #25574E",
"C  c #295449",
"Z  c #25584F",
"A  c #2F5A49",
"S  c #305243",
"D  c #315543",
"F  c #325744",
"G  c #335945",
"H  c #345A45",
"J  c #265A50",
"K  c #265B51",
"L  c #275E52",
"P  c #3D6648",
"I  c #3A684B",
"U  c #3D6E4D",
"Y  c #2E6250",
"T  c #286154",
"R  c #286355",
"E  c #286456",
"W  c #296556",
"Q  c #286457",
"!  c #296758",
"~  c #2A6858",
"^  c #2A6958",
"/  c #2A6A59",
"(  c #2A6A5A",
")  c #2B6C5A",
"_  c #2B6D5B",
"`  c #2B6E5C",
"'  c #2B6F5C",
"]  c #2B735F",
"[  c #2C705D",
"{  c #2C725E",
"}  c #2C735E",
"|  c #2D735E",
" . c #2C735F",
".. c #2D735F",
"X. c #2C745E",
"o. c #2D745E",
"O. c #2C745F",
"+. c #2D745F",
"@. c #2E755E",
"#. c #2F765E",
"$. c #32775D",
"%. c #30775E",
"&. c #31785E",
"*. c #32795E",
"=. c #337A5E",
"-. c #34795D",
";. c #347A5E",
":. c #347B5E",
">. c #357B5E",
",. c #357C5E",
"<. c #367D5E",
"1. c #377E5E",
"2. c #397D5C",
"3. c #387F5E",
"4. c #456C46",
"5. c #4A7549",
"6. c #4D794A",
"7. c #4F7E4C",
"8. c #507F4C",
"9. c #437952",
"0. c #437A52",
"q. c #3A805D",
"w. c #3B805D",
"e. c #39805E",
"r. c #3C815D",
"t. c #3D845E",
"y. c #3E855E",
"u. c #3F865E",
"i. c #51814D",
"p. c #55874F",
"a. c #468155",
"s. c #498757",
"d. c #4F8954",
"f. c #40815B",
"g. c #40825B",
"h. c #40855D",
"j. c #40875E",
"k. c #41885E",
"l. c #438A5E",
"z. c #448B5E",
"x. c #478C5C",
"c. c #468D5E",
"v. c #478E5E",
"b. c #4A8958",
"n. c #4B8B58",
"m. c #4D8B58",
"M. c #4B8E5A",
"N. c #4B8E5B",
"B. c #4F8C58",
"V. c #4B8F5C",
"C. c #488F5E",
"Z. c #588C50",
"A. c #588D51",
"S. c #4D905A",
"D. c #49905E",
"F. c #4A915E",
"G. c #4B925E",
"H. c #4D915C",
"J. c #4E925C",
"K. c #4F925C",
"L. c #4C935E",
"P. c #4D945E",
"I. c #4E955E",
"U. c #4F965E",
"Y. c #549057",
"T. c #569457",
"R. c #5A9051",
"E. c #5B9152",
"W. c #589356",
"Q. c #5F9954",
"!. c #50975E",
"~. c #52995D",
"^. c #53995D",
"/. c #539A5D",
"(. c #52995E",
"). c #549A5D",
"_. c #559B5D",
"`. c #579C5D",
"'. c #579D5D",
"]. c #589D5C",
"[. c #599E5C",
"{. c #5A9F5C",
"}. c #639B54",
"|. c #629D55",
" X c #659C54",
".X c #5EA25B",
"XX c #5FA35B",
"oX c #5CA05C",
"OX c #5CA15C",
"+X c #5DA15C",
"@X c #66A457",
"#X c #6AA053",
"$X c #6BA455",
"%X c #60A35B",
"&X c #60A45B",
"*X c #63A45A",
"=X c #62A55B",
"-X c #63A65B",
";X c #64A55A",
":X c #64A65A",
">X c #64A75A",
",X c #65A75A",
"<X c #64A65B",
"1X c #66A75A",
"2X c #66A85A",
"3X c #67A85A",
"4X c #67A95A",
"5X c #6BAB59",
"6X c #68A95A",
"7X c #68AA5A",
"8X c #69AA5A",
"9X c #6AAB5A",
"0X c #6DAC58",
"qX c #6EAD58",
"wX c #70AD57",
"eX c #71AE57",
"rX c #74AF56",
"tX c #76B055",
"yX c #7EB050",
"uX c #7CB052",
"iX c #7CB353",
"pX c #7FB452",
"aX c #79B154",
"sX c #81B04E",
"dX c #82B14E",
"fX c #86B44E",
"gX c #87B74F",
"hX c #89B64D",
"jX c #8BB84D",
"kX c #8BB94D",
"lX c #89B84E",
"zX c #8AB94E",
"xX c #8CB94D",
"cX c #8DBA4D",
"vX c #8EBB4C",
"bX c #8FBB4C",
"nX c #91BC4C",
"mX c #81B551",
"MX c #83B550",
"NX c #82B551",
"BX c #83B650",
"VX c #84B650",
"CX c #85B750",
/* pixels */
"                                                                                                                                ",
"                                                                                                                                ",
"                                                                                                                                ",
"                                                                                                                                ",
"                                                                                                                                ",
"                                                                                                                                ",
"                                                                                                                                ",
"                                                                                                                                ",
"                                                                                                                                ",
"                                                                                                                                ",
"                                                                                                                                ",
"                                                                                                                                ",
"                                                                                                                                ",
"                                                                +.+.+.+.+.                +.+.+.+.                              ",
"                                                  +.+.+.+.+.+.| +.+.+.+.+.|           +.+.+.+.+.+.+.                            ",
"                                                +.+.+.+.+.+.+.+.%.W.W.W.g.+.|       | +.+.&.c.c.c.>.+.                          ",
"                                                +.+.h.h.h.>.+.>.Y.nXnXnX#Xg.+.+.+.+.+.+.+.r.9X9X9XL.>.+.                        ",
"                                              ] +.w.9X9X:XN.2.B.nXnXnXnXhX}.+.>.>.>.>.%.+.w.=X9X9X9Xc.+.+.                      ",
"                                            +.+.r.9X9X9Xh. XnXnXnXnXnXnXW.+.r.9X9X9X9Xc.+.+.>.:X9X9Xc.+.+.                      ",
"                                      + + + ; x r.9X9X9XuXjXnXnXnXnXnXnXW.m.fXxXxXxXrX:XL.+.>.:Xu Y c 2 2                       ",
"                                    + $ $ $ $ j r.9X9X9XVXnXnXnXnXnXnXnXsXsXnXnXnXnXjXtX:XL.>.:XA.v > $ $ +                     ",
"                                  + > 4.4.4.4.H C V.9X9XVXnXnXnXnXnXnXnXnXnXnXnXnXnXnXfXpX$X>.:X9X8.4.a $ $ +                   ",
"                                  $ t 9X9X9X9Xp.P V.9X9XaXjXnXnXnXnXBXjXnXnXnXxXBXxXnXnXnXuXV.3X9X9X9XA.p $ $                   ",
"                                $ $ 3 7.7.7.7.E.9X9X9X9X9XaXjXnXnXnXwXuXVXVXVXBX9XjXnXnXnXfX9X9X9X9X9X9Xp.$ $                   ",
"                            $ $ $ $ $ $ $ $ $ s |.9X9X9X9X9XtXxXxXxXwX9X9X9X9X9X9XVXxXnXxXBX9X9X9X9X9X@X6.$ $                   ",
"                        $ $ $ $ $ $ $ $ $ $ $ $ y 9X9X9X9X9X9X9X9X9X9X9X9X9X9X9X9X9XVXnXBX9X9X9X9X9X9X5.$ $ $                   ",
"                      + $ $ $ G b.U $ $ i.Q.Q.Q.|.9X9X9X9X9X9X9X9X9X9X9X9X9X9X9X9X9X0X0X0X9X9X9X9Xd t 1 $ $ $                   ",
"                      $ $ I 9.b.(.9.$ $ E.9X9X9X9X9X9X9X9X9X9X9X9X9X9X9X9X9X:X].9X9X9X9X9X9X9X9X9Xd.i $ $ $ $ $                 ",
"                      $ $ a.(.(.(.b.G $ E.9X9X9X9X9X9X9X9X9X:XoX.X9X9X9X9X:X]._.9X9X9X9X9X9X9XoXoX_.9.A n z $ $ +               ",
"                      $ $ D s.(.(.(.S.S T.3X9X9X9X9X9X9X=X:X:XoXoX.X9X9X:X].(.(..X9X9X9X9X9X3X(.(.(.(.D.w.) z ; $               ",
"                        $ $ F s.(.(.(.(.(.oX3X9X9X9X9X=XoX=X9X9X3X(..X=XoX].].].(..X3X9X9X9X3X(.(.(.(.(.D.1.+.6 $               ",
"                          $ $ G N.I.(.(.(.(.oX3X3X3X3X_.=X9X9X9X:X(.(._.=X9X9X3X(.(.%X3X3X3X:X(.(.(.(.(.(.I.+.6 $               ",
"                        $ $ $ $ j 1.(.(.(.(.(.(.(.(.(.(.=X9X9X:X(.(.(.=X9X9X9X3X(.(.(.(.(.(.(.(.(.(.(.(.(.I.+.6 $               ",
"                      + $ $ $ z ) 1.(.(.(.(.(.(.(.(.(.(._._._._.(.(.(.=X9X9X9X3X(.(.(.(.(.(.(.(.1.&.k.(.D.&.+.6 $               ",
"                      $ $ n Z ! +.1.(.(.(.(.(.(.(.(.(.(.(.(.(.(.(.(.(.`.=X9X:X].(.(.(.(.(.(.(.(.&.+.&.2.1.) r ; +               ",
"                      $ $ R +.+.+.&.u.(.(.(.(.V.u.u.u.I.(.(.(.(.(.(.(.(.`.oX].(.(.(.(.(.(.(.(.(.z.&.+.+.+.~ ; $ +               ",
"                      $ $ z ! +.+.+.&.(.(.c.k.u.u.u.u.h.L.(.(.(.(.(.z.L.(.(.(.(.(.(.(.(.(.(.(.(.(.2.+.+.+.) z ; $ $             ",
"                    + $ $ $ Z +.+.+.%.c.c.>.&.k.(.(.(.&.u.L.(.(.!.c.&.c.(.(.(.!.c.I.(.(.(.(.(.(.(.2.+.+.+.+.+.j > $             ",
"                  + $ $ 2 2 N ' +.+.+.+.+.+.k.(.(.(.(.&.+.u.I.I.D.+.+.c.(.(.!.D.+.D.(.(.(.(.(.(.I.1.+.+.+.+.+.+.e $ $           ",
"                  + $ 2 +.+.e n +.+.+.+.+.+.k.(.(.(.(.&.+.+.+.+.+.+.+.c.(.(.V.+.+.D.(.(.(.(.(.(.&.+.+.+.+.+.+.+.e $ $           ",
"                  + $ 2 +.+.) ' +.+.+.+.+.+.+.u.(.I.&.+.+.+.+.+.+.+.+.%.&.&.%.+.+.%.c.(.(.(.(.(.&.f M +.+.+.+.+.e $ $           ",
"                  + $ $ e ~ +.+.+.+.+.+.+.+.+.&.2.1.+.+.+.+.+.+.+.+.+.+.+.+.+.+.+.+.>.2.2.2.2.2.+.e n +.+.+.+.j > $ $           ",
"                    $ $ $ r E +.+.+.+.+.+.+.+.+.+.+.+.+.+.+.+.+.+.+.+.+.+.+.+.+.+.b j L +.+.+.+.b 5 0 N +.) z ; $ $             ",
"                      $ $ $ f n n N +.+.+.+.+.+.+.+.+.+.+.+.E N +.+.+.+.+.+.+.+.+.6 $ e J +.+.+.6 $ $ 8 n z $ $ +               ",
"                          $ $ $ $ 5 Z Z ' R ! +.+.+.+.+.R Z h 0 +.+.+.+.+.+.+.| J 2 $ $ 0 Z Z Z 2 + + + + + + +                 ",
"                            $ $ $ $ $ $ J e m +.+.| ~ ~ q $ $ 8 ~ +.+.+.+.+.+.~ ; $ $ $ $ $ $ $ +                               ",
"                                + $ $ $ $   E +.+.~ $ $ $ $ $ $ 2 +.+.+.+.+.+.~ ; $ $ $ $ $ $ $                                 ",
"                                                          $ $ $ $ 2 2 J +.~                                                     ",
"                                                                                                                                ",
"                                                                                                                                ",
"                                                                                                                                ",
"                                                                                                                                ",
"                                                                                                                                ",
"                                                                                                                                ",
"                                                                                                                                ",
"                                                                                                                                ",
"                                                                                                                                ",
"                                                                                                                                ",
"                                                                                                                                ",
"                                                                                                                                ",
"                                                                                                                                ",
"                                                                                                                                ",
"                                                                                                                                ",
"                                                                                                                                "
};
