/* XPM */
static char * wall_xpm[] = {
"65 64 243 2",
"  	c #80AC5E",
". 	c #91B455",
"+ 	c #9BB94E",
"@ 	c #8DB257",
"# 	c #92B454",
"$ 	c #B0B955",
"% 	c #B9B958",
"& 	c #9AB94E",
"* 	c #99B84F",
"= 	c #7FAC5E",
"- 	c #95B652",
"; 	c #98B850",
"> 	c #8FB356",
", 	c #A5B952",
"' 	c #9AB84F",
") 	c #98B653",
"! 	c #A5B951",
"~ 	c #9FB94F",
"{ 	c #B7B958",
"] 	c #B8B958",
"^ 	c #97B850",
"/ 	c #81AD5D",
"( 	c #92B554",
"_ 	c #94B553",
": 	c #8BB159",
"< 	c #8CB158",
"[ 	c #AAB953",
"} 	c #9EB94F",
"| 	c #89B05A",
"1 	c #82AD5D",
"2 	c #84AE5C",
"3 	c #8BB158",
"4 	c #88B05A",
"5 	c #98B750",
"6 	c #86AF5B",
"7 	c #9DB94F",
"8 	c #9CB94E",
"9 	c #A3B951",
"0 	c #B5B957",
"a 	c #B3B858",
"b 	c #81AC5E",
"c 	c #91AF5D",
"d 	c #B7B957",
"e 	c #B5B858",
"f 	c #A4B45A",
"g 	c #87AE5C",
"h 	c #85AE5B",
"i 	c #83AD5D",
"j 	c #B6B957",
"k 	c #9CB94D",
"l 	c #99B850",
"m 	c #A1B950",
"n 	c #A8B953",
"o 	c #B4B957",
"p 	c #AEB954",
"q 	c #ADB65A",
"r 	c #97B554",
"s 	c #97B15C",
"t 	c #7EAC5E",
"u 	c #BAB958",
"v 	c #A8B952",
"w 	c #B4B956",
"x 	c #B3B956",
"y 	c #97B751",
"z 	c #94B653",
"A 	c #9CB655",
"B 	c #ABB659",
"C 	c #9BB94D",
"D 	c #A5B45A",
"E 	c #B1B956",
"F 	c #AEB955",
"G 	c #B2B956",
"H 	c #87AF5A",
"I 	c #96B751",
"J 	c #8EB257",
"K 	c #97B652",
"L 	c #87AF5B",
"M 	c #95B05C",
"N 	c #A9B953",
"O 	c #A0B950",
"P 	c #81AC5D",
"Q 	c #83AC5E",
"R 	c #93B554",
"S 	c #9AB94F",
"T 	c #A7B952",
"U 	c #9DB850",
"V 	c #82AC5E",
"W 	c #A6B951",
"X 	c #A2B950",
"Y 	c #ABB758",
"Z 	c #92B455",
"` 	c #A1B35B",
" .	c #9AB15C",
"..	c #A0B35A",
"+.	c #8EB356",
"@.	c #8AB159",
"#.	c #7EAB5F",
"$.	c #9DB94E",
"%.	c #BAB959",
"&.	c #A0B35B",
"*.	c #88AD5E",
"=.	c #8DAE5D",
"-.	c #AAB55A",
";.	c #89B059",
">.	c #B1B955",
",.	c #A6B952",
"'.	c #9EB94E",
").	c #90AF5D",
"!.	c #8EAF5D",
"~.	c #A9B952",
"{.	c #AFB955",
"].	c #ACB954",
"^.	c #ADB954",
"/.	c #8AB059",
"(.	c #B1B759",
"_.	c #97B653",
":.	c #93B553",
"<.	c #96B652",
"[.	c #A4B951",
"}.	c #90B355",
"|.	c #83AE5C",
"1.	c #85AE5C",
"2.	c #83AD5C",
"3.	c #8CB258",
"4.	c #98B751",
"5.	c #A0B655",
"6.	c #9BB555",
"7.	c #91AF5C",
"8.	c #7FAB5F",
"9.	c #92B259",
"0.	c #A4B853",
"a.	c #82AD5C",
"b.	c #ADB758",
"c.	c #9EB851",
"d.	c #8EB357",
"e.	c #9BB25A",
"f.	c #A3B852",
"g.	c #95B653",
"h.	c #88AF5A",
"i.	c #90B455",
"j.	c #B4B858",
"k.	c #97B25A",
"l.	c #A6B45A",
"m.	c #B1B857",
"n.	c #9CB94F",
"o.	c #506A69",
"p.	c #B5B956",
"q.	c #84AD5E",
"r.	c #93B05C",
"s.	c #9AB850",
"t.	c #92B258",
"u.	c #A1B557",
"v.	c #8CC3C4",
"w.	c #98B25A",
"x.	c #A9B954",
"y.	c #B0B858",
"z.	c #86AE5C",
"A.	c #86AD5D",
"B.	c #669D9D",
"C.	c #A7B55A",
"D.	c #9AB458",
"E.	c #A3B558",
"F.	c #9AB25C",
"G.	c #8CB257",
"H.	c #A3B45B",
"I.	c #7EAB5E",
"J.	c #161C2E",
"K.	c #9BB850",
"L.	c #A1B852",
"M.	c #97B750",
"N.	c #91B159",
"O.	c #82AD5E",
"P.	c #B3B859",
"Q.	c #B2B759",
"R.	c #99B751",
"S.	c #84AE5B",
"T.	c #A0B94F",
"U.	c #8AAE5D",
"V.	c #AFB759",
"W.	c #85AD5E",
"X.	c #88AF5B",
"Y.	c #AFB856",
"Z.	c #ACB758",
"`.	c #8DAF5D",
" +	c #87A147",
".+	c #7FAC5F",
"++	c #6E9654",
"@+	c #819F4B",
"#+	c #7E9D4D",
"$+	c #85A048",
"%+	c #749853",
"&+	c #7F9B50",
"*+	c #6E9555",
"=+	c #809E4C",
"-+	c #91B454",
";+	c #A1A14F",
">+	c #8AA148",
",+	c #7B9B4E",
"'+	c #6F9654",
")+	c #9DA14E",
"!+	c #819E4B",
"~+	c #719654",
"{+	c #959F4F",
"]+	c #7C9C4E",
"^+	c #769754",
"/+	c #7A9853",
"(+	c #9FA14F",
"_+	c #88A147",
":+	c #86A147",
"<+	c #90A14A",
"[+	c #A0A14F",
"}+	c #8FA14A",
"|+	c #90B356",
"1+	c #739853",
"2+	c #759852",
"3+	c #719753",
"4+	c #769951",
"5+	c #86A048",
"6+	c #729753",
"7+	c #749852",
"8+	c #7B9C4E",
"9+	c #9FB654",
"0+	c #869E4D",
"a+	c #7E9853",
"b+	c #709753",
"c+	c #7F9D4C",
"d+	c #829F4A",
"e+	c #799A4F",
"f+	c #91B259",
"g+	c #A3B853",
"h+	c #969F4F",
"i+	c #89A049",
"j+	c #9BB25B",
"k+	c #A7B45A",
"l+	c #83AD5E",
"m+	c #91B258",
"n+	c #93B357",
"o+	c #AAB757",
"p+	c #97B555",
"q+	c #B1B858",
"r+	c #94B15A",
"s+	c #99B458",
"t+	c #AAB659",
"  . + + @ # $ % & * =         - + ; = > + + + + + + + , ' = ) ! ~ { ] ^ / ( _   : + + _ < [ % } +           : + + = | + + + + + + ",
"1 2 + + + + + } + + 3 4 5 / 6 + + + ; + 7 8 9 0 8 + + ] a b c ] d { e f g & + h / + + + + + } + + _ 1 * i 1 ' + + ; + 8 7 7 j } + ",
"+ + + + + + + + + + + k + + l 3 ( + + m { n % ] o + + p ] q r j % s t u v + + + + + + + + + + + + + k + + + 3 @ + + 8 w w x ] { m ",
"+ + + + + + + + + + -   / k y     z + A B C   D E F + + 7 G + + # H I + + + + + + + + + + + + + + - 2 = & + =   J + K q 8 L M E E ",
"+ 8 + + $ N O o _ 2   P   2 -   Q i @   1 8 R / + + + + + + + + + S + + S S + + 8 + + T E + 0 U 2   b   2 - = V   - b   + 5   ' + ",
"W ] X X ] N ] ] Y > > 8 Z ` =  .u ..+.+.' + + + + + + @ > + + + 8 = @.y   #.8 $.%.v + % [ 0 ] { +.> * - &.*.=.{ -.+.+.- + + 8 + + ",
";.>.,.m m x x 9 + + + + 8 % G E ] G $ ] ~ + + + m + + =   > b / '.{ ).!.b >   1 ~.{.+ N G x ].8 + + + & { { ,.] 0 v ] N + + + m 7 ",
"y + + + @.6 & + + + + + + p x E {.~ ] X 8 N ^.p % 8 + > 1 /.  R [ ] (.% _.    :.+ + + ( 6 - + + + + + + ! ] ,.j 8 ] ! } O G ! ] ! ",
"+ & > <.  = ' + + + + + + + & + + + & + 8 ^.~ ].[.+ + + + + k 8 + 7 ].! + + + + + }.l =   :.+ + + + + + + & + & + & + + ].~ ^.[ + ",
"+ ' |.1.2 > + + + 5 ' + 5   & + + + + + ; 5 + + ' 5 S + + + / 1 ' 5 S + + + + + + 2 1.2 L + + + * l + ' 1 - + + + + + * 5 S + + 5 ",
"+ + + + + + + + + 1 1.I b = & @ 4 ' + + 2.= 3.+ >   6 + + +     2   - + + + + + + + + + + + + + < 1 4.2   z z 4 - + + @   L + ; = ",
"+ + + + + + + + + S @.z = > + > = 1 6 h .     5.6.  7.6 / # |     = - 3 = # + + + + + + + + + + 8 : 5 8.2 + -   = @   (     9.0.a.",
"+ + + + + + + + + + + & * S + + * 2 i @.6 i 1 b.] c.] = 1 2 2   b l @.i 1.+ + + + + + + + + + + + + + * * + + * 3 i 2 d.i i e.] f.",
"+ + + + + /.& + + + + + + + + > # + + + + + + + ,.7 ,.# + + * ( y + + + + + + + + + + + 3 I + + + + + + + + - < 8 + + + + + + ! ~ ",
"R   < ' 2 = * _ = 1 + + + + + @ 8.* + + + + + + ! + X m + + + + + + + _ z y <.' = 2 ' 3   _ _ 1 = + + + + + g.  # + + + + + + [.} ",
":.    i     i     I + + + + + + 5 + + + 8 8 + $ ] G $ { ~ + + & 2.h.+     / 4 '     i     i     > + + + + + + ; ' + + 8 8 + ,.] j ",
"8 i ;.i.i = }.. z & < + + + + + + + + + j G ~ j ] j.k.l.{ & + + 4 = g.y b = 8.5 @ i i.;.= < . . k 3.l + + + + + + + + ].j ~ G ] % ",
"+ + + + + + /   ; i 2 + + + + + + + + + 7 G G G m.Q   +.+ + X X & n.X + o.o.o.o.o.+ + + + ;.  _ 3./ 5 + + + + + + + + + G G G E c ",
"8 + + 8 8 p.q.  3 4.' + + + + + + + + + + + + + * y y + + & ] ] o.o.o.o.o.o.o.o.o.o.o.& G r.  i s.4.+ + + + + + + + + + + + + & y ",
"% ~ x j } % e t.$ % u.# + +.. + + > +.+ + + + + + + + + + + F o.o.o.o.o.o.v.v.v.v.o.o.o.{ % w.x.% y.> k > > + + :.+.* + + + + + + ",
"] j N ] { ].] o ] m.1 L 1.  ;.+ +.    y 2 b L + + + + + + + + o.o.o.o.v.v.v.v.v.v.v.o.o.o.] j ] j z.b @   2 + <.    _ < b / + + + ",
"9 X + 9 9 9 9 7 9 + 3     = + 3.      q A.  6 + + o.o.o.o.o.o.o.o.B.B.v.v.v.v.v.v.v.v.o.o.o.O X } -       - _     = C.s     + + + ",
"+ + + + + + + + + + 8 3.3.z + + - 3.Y % t.< o.o.o.o.o.o.o.o.o.o.B.B.B.v.v.v.v.v.v.v.v.B.o.o.o.o.+ + > 3.> + + S < D.] E.< ; + + + ",
"+ 1./ l + d.1 g.+ + + + + + + + + } 0 F o.o.o.o.o.o.o.B.B.B.B.B.B.B.B.B.v.v.v.v.v.v.v.B.B.B.o.o.o.+ + + + + + + + o o + + + + + + ",
"+ |.F.6 G.    L + + + + + + + + + + + o.o.o.o.o.o.B.B.B.B.v.v.v.v.v.v.B.B.v.v.v.v.v.v.B.B.B.B.o.o.o.+ + + + + + + + + + + + + + + ",
"( 1 H.% ] I.4 = 6 S + + + y   +.8.l o.o.o.B.B.B.B.B.B.B.v.v.v.v.v.v.v.v.B.v.v.v.v.v.v.B.B.B.B.B.J.o.+ + ' 1.h./ ( R R + + + ,.8 x ",
"l y K.j L.5 + l l + + + + > 1     o.o.o.v.v.v.v.B.B.B.B.v.v.v.v.v.v.v.v.v.v.v.v.v.v.v.v.B.B.B.B.J.J.o.+ 4.1     1   i + y i { j { ",
"k i 6 M.1 1.+ + + + + + + + o.o.o.o.o.v.v.v.v.v.v.v.B.B.v.v.v.v.v.v.v.v.v.v.v.v.v.v.v.v.v.B.B.B.J.J.J.+ + + . . . . S + * 2 N.,.9 ",
"    = 1 / = i * + + + + + o.o.o.o.o.v.v.v.v.v.v.v.v.v.B.B.v.v.v.v.v.v.v.v.v.v.v.v.v.v.v.v.v.B.B.J.J.J.J.+ + + + + + + + + + + + + ",
"O.q.P.| s.Q.R.' + + + + + o.o.J.v.v.v.v.v.v.v.v.v.v.v.B.B.v.v.v.v.v.v.v.v.v.v.v.v.v.v.v.v.v.v.B.J.J.J.J.+ + + + + 2 5 & + S & + + ",
"p.f ] j j % } ].+ 8 ].+ + o.o.J.v.v.v.v.v.v.v.v.v.v.v.v.B.v.v.v.v.v.v.v.v.v.v.v.v.v.v.v.v.v.v.v.J.J.J.J.J.+ @ & @.  3 S.; i 3.' @ ",
"] ] P.(.] G ] ] & j 0 + o.o.J.J.v.v.v.v.v.v.v.v.v.v.v.v.v.v.v.v.v.v.v.v.v.v.v.v.v.v.v.v.v.v.v.J.J.J.J.J.J.4   i T.U.V ] V.=       ",
"] e W.X.m + m m + m 7 + o.J.J.J.v.v.v.v.v.v.v.v.v.v.v.v.v.v.B.v.v.v.v.v.v.v.v.v.v.v.v.v.v.v.v.J.J.B.B.J.J.4   - p Y.Z.% `.  @._ > ",
"& & @ + + + + + + + + J.J.J.J.J.J.v.v.v.v.v.v.v.v.v.v.v.v.v.v.B.v.v.v.v.v.B.v.v.v.v.v.v.v.J.J.J.o.o.B.B.J.J.+ + & T N ].l @ 8 + + ",
"+ + + + + + + + + +  +J.J.J.B.B.J.J.v.v.v.v.v.v.v.v.v.v.v.v.v.v.B.v.v.v.v.B.v.v.v.v.v.v.J.J.J.o.o.o.o.B.J.J.+ + + + + + + + y + + ",
"+ + + + + + + + +  +J.J.B.B.B.B.B.B.B.v.v.v.v.v.v.v.v.v.v.v.v.v.B.B.B.B.B.B.B.v.v.o.o.o.o.o.o.o.o.o.o.B.B.J.J.+ + + + + + 3..+' +.",
"= i.<.. ' + # ;  + +J.J.B.B.B.B.B.B.B.B.v.v.v.v.v.v.v.v.v.v.v.v.B.B.B.B.B.B.B.B.v.v.v.B.o.o.o.o.o.o.o.o.B.J.J.++3 + + + * 2   >   ",
"1 1 @   1 >   @+#+$+J.J.B.B.B.B.B.B.B.B.B.v.v.v.v.v.v.v.v.J.J.J.J.B.B.B.B.v.v.v.v.v.B.B.B.B.o.o.o.o.o.o.B.J.J.%+= & l ' I       i ",
"@ 1 i.>   = l.&+*+J.J.B.B.B.B.B.B.B.B.B.B.B.v.v.v.v.J.J.J.J.J.J.J.J.o.B.v.v.v.v.B.B.B.B.B.B.B.o.o.o.o.o.B.J.J. +=+H = > * ( R _ + ",
"  # + + @ -+$ ;+ +J.J.B.B.B.B.B.B.B.B.B.B.B.B.B.B.B.B.B.o.o.o.o.o.o.o.o.o.o.o.B.B.B.B.B.B.B.B.o.o.o.o.o.B.J.J. + += | + + + + + + ",
"1 |.+ + + + 8 >+ +J.J.B.B.B.B.B.B.B.B.B.B.B.B.B.B.B.B.B.o.o.o.o.o.o.o.o.o.o.B.B.B.B.B.B.B.B.B.o.o.o.o.o.B.J.J. + +; + 8 7 7 j } + ",
"+ + + + + + +  + +J.J.B.B.B.B.B.B.B.B.B.B.B.B.B.B.B.B.B.o.o.o.o.o.o.o.o.o.B.B.B.B.B.B.B.B.B.B.o.o.o.o.o.B.J.J.,+ ++ 8 x w x ] { O ",
"+ + + + + + +  + +J.J.B.B.B.B.B.B.B.B.B.B.B.B.B.B.B.B.B.o.o.o.o.o.J.o.o.o.B.B.B.B.B.B.B.B.B.B.o.o.o.o.o.J.J.J.'+,++ K q 8 L M E G ",
"+ 8 + + {.N O )+!+%+J.J.B.B.B.B.B.B.B.B.B.B.B.B.B.B.B.B.o.o.o.o.o.J.o.o.o.B.B.B.B.B.B.B.B.B.B.o.o.o.o.J.J.J.J.~+'+- b   + 5   ' + ",
"W ] m X ] N ] ] {+]+J.J.J.B.B.B.B.B.B.B.B.B.B.B.B.B.B.B.o.o.o.o.o.J.J.o.o.B.B.B.B.B.B.B.B.B.o.o.o.o.J.J.J.^+/+(+-.+.+.- + + 8 + + ",
"/.>.,.m m x x 9 _+ + +J.J.J.B.B.B.B.B.B.B.B.B.B.B.B.B.B.o.o.o.o.o.J.J.o.o.B.B.B.B.B.B.B.B.B.o.o.o.B. +:+(+(+<+[+0 T ] N + + + O 7 ",
"y + + + 3 6 & + +  + + + +J.J.B.B.B.B.B.B.B.B.B.B.B.B.o.o.o.o.o.o.J.J.o.o.o.B.B.B.B.B.B.B.B.B.B.B. + + +}+[+<+j 7 ] , } O G ! ] ! ",
"+ & |+<.  = ' + + + + +  + +J.J.B.B.B.B.B.B.B.B.B.B.B.o.o.o.J.J.J.J.J.J.J.o.o.o.o.B.B.B.B.B. + + + + + ++ & + & + & + + ].~ ^.[ + ",
"+ ' 2.1.2 > + + + ; ' + 5 '+:+ +B.B.B.B.B.B.B.B.B.o.o.o.J.J.J.J.J.J.J.J.J.J.J. + +1+%+1+2+ + + +$+l + ' 3+- + + + + + * 5 & + + 5 ",
"+ + + + + + + + + 1 1.y b = :+,+4+5+ + +6+++@ + ]+'+7+ + + +'+'+J.J.J.J.J. + + + + + + + + + + +< 1 5 1+  z z | - + + @   L + ; = ",
"+ + + + + + + + + S /.z = > + 8+++3+7+7+#     9+0+'+a+7+b+c+4+'+'+++d+e+'+c+ + + + + + + + ++ + + @.5 8.2 + -   = @   R     f+g+1 ",
"+ + + + + + + + + + + & l ' + + * 2 1 @.7+3+1 h+[+i+(+++3+2 2   b ; @.1 1.+  + + + + + ++ + + + + + + l * + + * 3 1 |.J 1 1 j+] f.",
"+ + + + + @.& + + + + + + + + > # + +  + ++ + + T 7 T -++ + * # y + + + + + + + + + + + < I + + + + + + + + - 3.8 + + + + + + ,.~ ",
"R   < ' 2 = * _   1 + + + + + @ 8.* + + + + + + [.+ m m + + + + + + + _ - y I ' = 2 ' 3   _ z 1 = + + + + + z   # + + + + + + 9 } ",
":.    i     2.    I + + + + + + 5 + + + 8 8 + $ ] G $ { ~ + + & |.4 +     / 4 '     i     i     > + + + + + + 5 ' + + 8 8 + ,.] j ",
"8 i ;.|+i = |+i.z & 3.+ + + + + + + + + j G } j ] j.k.k+{ & + + h.= g.y b = 8.5 @ i |+| = 3 i.. k @ l + + + + + + + + ].j ~ E ] % ",
"+ + + + + + 1   ; i 2 + + + + + + + + + 7 x G G m.l+  d.+ + X X & n.X + + + + + + + + + + ;.  _ 3./ 5 + + + + + + + + + G G G G c ",
"8 + + 8 8 w q.  3 y ' + + + + + + + + + + + + + l I I + + & ] ] x m ] [ + + + 8 + + 8 & G r.  1 l 4.+ + + + + + + + + + + + + & I ",
"% ~ x 0 } % e m+$ % u.( + > . + + |+> + + + + + + + + + + + F % % n+P.o+b = p+{ N ^.] X { % w.n % q+> k > > + + _ > * + + + + + + ",
"] j [ ] { ].] o ] m.1 L 1.  | + >     M.2 b H + + + + + + + + 8 |+  V b     r+] ] X { ] ! ] j ] j z.b J   |.+ <.    z 3.b / + + + ",
"9 9 & 9 9 9 9 7 9 + 3     = + 3.    = q A.  6 + + + + + + + + + +.2 - - - - + X 9 + m 9 9 9 O X } -       - z     = l.s     + + + ",
"+ + + + + + + + + + 8 < < _ + + - 3 Y % t.3 + + + + + + + + + + + + + + + + + + + + + + + + + + + + > < d.+ + S 3 s+] E.3 5 + + + ",
"+ 1./ l + +.1 g.+ + + + + + + + + } 0 F + + + + + + + ; + 3 | + + + + + + ; + + d.1 _ + <.1 3 + + + + + + + + + + o o + + + + + + ",
"+ |. .L @     L + + + + + + + + + + + + + + + + + + + = 4 = t+~ + + + | y .+> + @ U.U.z     i * + + + + + + + + + + + + + + + + + "};
